# MagicaVoxel @ Ephtracy

# group
g battleBar

# material
mtllib battleBar.mtl
usemtl palette

# normals
vn -1 0 0
vn 1 0 0
vn 0 0 1
vn 0 0 -1
vn 0 -1 0
vn 0 1 0

# texcoords
vt 0.767578 0.5
vt 0.775391 0.5
vt 0.802734 0.5
vt 0.830078 0.5
vt 0.845703 0.5
vt 0.849609 0.5
vt 0.853516 0.5

# verts
v 0 2 6
v 0 2 2
v 0 2 1
v 0 2 -0
v 0 2 -1
v 0 2 -2
v 0 2 -6
v 0 6 6
v 0 6 2
v 0 6 1
v 0 6 -0
v 0 6 -1
v 0 6 -2
v 0 6 -6
v 1 0 7
v 1 0 -7
v 1 1 8
v 1 1 7
v 1 1 2
v 1 1 1
v 1 1 -0
v 1 1 -1
v 1 1 -2
v 1 1 -7
v 1 1 -8
v 1 2 6
v 1 2 2
v 1 2 1
v 1 2 -0
v 1 2 -1
v 1 2 -2
v 1 2 -6
v 1 6 6
v 1 6 2
v 1 6 1
v 1 6 -0
v 1 6 -1
v 1 6 -2
v 1 6 -6
v 1 7 8
v 1 7 7
v 1 7 2
v 1 7 1
v 1 7 -0
v 1 7 -1
v 1 7 -2
v 1 7 -7
v 1 7 -8
v 1 8 7
v 1 8 -7
v 1 2 6
v 1 2 2
v 1 2 1
v 1 2 -0
v 1 2 -1
v 1 2 -2
v 1 2 -6
v 1 6 6
v 1 6 2
v 1 6 1
v 1 6 -0
v 1 6 -1
v 1 6 -2
v 1 6 -6
v 2 0 7
v 2 0 -7
v 2 1 8
v 2 1 7
v 2 1 2
v 2 1 1
v 2 1 -0
v 2 1 -1
v 2 1 -2
v 2 1 -7
v 2 1 -8
v 2 2 6
v 2 2 2
v 2 2 1
v 2 2 -0
v 2 2 -1
v 2 2 -2
v 2 2 -6
v 2 6 6
v 2 6 2
v 2 6 1
v 2 6 -0
v 2 6 -1
v 2 6 -2
v 2 6 -6
v 2 7 8
v 2 7 7
v 2 7 2
v 2 7 1
v 2 7 -0
v 2 7 -1
v 2 7 -2
v 2 7 -7
v 2 7 -8
v 2 8 7
v 2 8 -7
v 1 1 8
v 1 7 8
v 2 1 8
v 2 7 8
v 1 0 7
v 1 1 7
v 1 7 7
v 1 8 7
v 2 0 7
v 2 1 7
v 2 7 7
v 2 8 7
v 0 2 6
v 0 6 6
v 1 2 6
v 1 6 6
v 1 2 -6
v 1 6 -6
v 2 2 -6
v 2 6 -6
v 1 2 6
v 1 6 6
v 2 2 6
v 2 6 6
v 0 2 -6
v 0 6 -6
v 1 2 -6
v 1 6 -6
v 1 0 -7
v 1 1 -7
v 1 7 -7
v 1 8 -7
v 2 0 -7
v 2 1 -7
v 2 7 -7
v 2 8 -7
v 1 1 -8
v 1 7 -8
v 2 1 -8
v 2 7 -8
v 1 0 7
v 2 0 7
v 1 0 -7
v 2 0 -7
v 1 1 8
v 2 1 8
v 1 1 7
v 2 1 7
v 1 1 -7
v 2 1 -7
v 1 1 -8
v 2 1 -8
v 0 2 6
v 1 2 6
v 0 2 2
v 1 2 2
v 0 2 1
v 1 2 1
v 0 2 -0
v 1 2 -0
v 0 2 -1
v 1 2 -1
v 0 2 -2
v 1 2 -2
v 0 2 -6
v 1 2 -6
v 1 6 6
v 2 6 6
v 1 6 2
v 2 6 2
v 1 6 1
v 2 6 1
v 1 6 -0
v 2 6 -0
v 1 6 -1
v 2 6 -1
v 1 6 -2
v 2 6 -2
v 1 6 -6
v 2 6 -6
v 1 2 6
v 2 2 6
v 1 2 2
v 2 2 2
v 1 2 1
v 2 2 1
v 1 2 -0
v 2 2 -0
v 1 2 -1
v 2 2 -1
v 1 2 -2
v 2 2 -2
v 1 2 -6
v 2 2 -6
v 0 6 6
v 1 6 6
v 0 6 2
v 1 6 2
v 0 6 1
v 1 6 1
v 0 6 -0
v 1 6 -0
v 0 6 -1
v 1 6 -1
v 0 6 -2
v 1 6 -2
v 0 6 -6
v 1 6 -6
v 1 7 8
v 2 7 8
v 1 7 7
v 2 7 7
v 1 7 -7
v 2 7 -7
v 1 7 -8
v 2 7 -8
v 1 8 7
v 2 8 7
v 1 8 -7
v 2 8 -7

# faces
f 8/6/1 2/6/1 1/6/1
f 9/5/1 3/5/1 2/5/1
f 9/6/1 2/6/1 8/6/1
f 10/4/1 4/4/1 3/4/1
f 10/5/1 3/5/1 9/5/1
f 11/3/1 5/3/1 4/3/1
f 11/4/1 4/4/1 10/4/1
f 12/1/1 6/1/1 5/1/1
f 12/3/1 5/3/1 11/3/1
f 13/2/1 7/2/1 6/2/1
f 13/1/1 6/1/1 12/1/1
f 14/2/1 7/2/1 13/2/1
f 18/7/1 16/7/1 15/7/1
f 19/7/1 16/7/1 18/7/1
f 20/7/1 16/7/1 19/7/1
f 21/7/1 16/7/1 20/7/1
f 22/7/1 16/7/1 21/7/1
f 23/7/1 16/7/1 22/7/1
f 24/7/1 16/7/1 23/7/1
f 26/6/1 19/6/1 18/6/1
f 27/5/1 20/5/1 19/5/1
f 27/6/1 19/6/1 26/6/1
f 28/4/1 21/4/1 20/4/1
f 28/5/1 20/5/1 27/5/1
f 29/3/1 22/3/1 21/3/1
f 29/4/1 21/4/1 28/4/1
f 30/1/1 23/1/1 22/1/1
f 30/3/1 22/3/1 29/3/1
f 31/2/1 24/2/1 23/2/1
f 31/1/1 23/1/1 30/1/1
f 32/2/1 24/2/1 31/2/1
f 33/6/1 26/6/1 18/6/1
f 39/2/1 24/2/1 32/2/1
f 40/7/1 18/7/1 17/7/1
f 41/6/1 33/6/1 18/6/1
f 41/7/1 18/7/1 40/7/1
f 41/6/1 34/6/1 33/6/1
f 42/5/1 35/5/1 34/5/1
f 42/6/1 34/6/1 41/6/1
f 43/4/1 36/4/1 35/4/1
f 43/5/1 35/5/1 42/5/1
f 44/3/1 37/3/1 36/3/1
f 44/4/1 36/4/1 43/4/1
f 45/1/1 38/1/1 37/1/1
f 45/3/1 37/3/1 44/3/1
f 46/2/1 39/2/1 38/2/1
f 46/1/1 38/1/1 45/1/1
f 47/7/1 25/7/1 24/7/1
f 47/2/1 39/2/1 46/2/1
f 47/2/1 24/2/1 39/2/1
f 48/7/1 25/7/1 47/7/1
f 49/7/1 45/7/1 44/7/1
f 49/7/1 46/7/1 45/7/1
f 49/7/1 47/7/1 46/7/1
f 49/7/1 43/7/1 42/7/1
f 49/7/1 42/7/1 41/7/1
f 49/7/1 44/7/1 43/7/1
f 50/7/1 47/7/1 49/7/1
f 51/6/2 52/6/2 58/6/2
f 52/5/2 53/5/2 59/5/2
f 58/6/2 52/6/2 59/6/2
f 53/4/2 54/4/2 60/4/2
f 59/5/2 53/5/2 60/5/2
f 54/3/2 55/3/2 61/3/2
f 60/4/2 54/4/2 61/4/2
f 55/1/2 56/1/2 62/1/2
f 61/3/2 55/3/2 62/3/2
f 56/2/2 57/2/2 63/2/2
f 62/1/2 56/1/2 63/1/2
f 63/2/2 57/2/2 64/2/2
f 65/7/2 66/7/2 68/7/2
f 68/7/2 66/7/2 69/7/2
f 69/7/2 66/7/2 70/7/2
f 70/7/2 66/7/2 71/7/2
f 71/7/2 66/7/2 72/7/2
f 72/7/2 66/7/2 73/7/2
f 73/7/2 66/7/2 74/7/2
f 68/6/2 69/6/2 76/6/2
f 69/5/2 70/5/2 77/5/2
f 76/6/2 69/6/2 77/6/2
f 70/4/2 71/4/2 78/4/2
f 77/5/2 70/5/2 78/5/2
f 71/3/2 72/3/2 79/3/2
f 78/4/2 71/4/2 79/4/2
f 72/1/2 73/1/2 80/1/2
f 79/3/2 72/3/2 80/3/2
f 73/2/2 74/2/2 81/2/2
f 80/1/2 73/1/2 81/1/2
f 81/2/2 74/2/2 82/2/2
f 68/6/2 76/6/2 83/6/2
f 82/2/2 74/2/2 89/2/2
f 67/7/2 68/7/2 90/7/2
f 68/6/2 83/6/2 91/6/2
f 90/7/2 68/7/2 91/7/2
f 83/6/2 84/6/2 91/6/2
f 84/5/2 85/5/2 92/5/2
f 91/6/2 84/6/2 92/6/2
f 85/4/2 86/4/2 93/4/2
f 92/5/2 85/5/2 93/5/2
f 86/3/2 87/3/2 94/3/2
f 93/4/2 86/4/2 94/4/2
f 87/1/2 88/1/2 95/1/2
f 94/3/2 87/3/2 95/3/2
f 88/2/2 89/2/2 96/2/2
f 95/1/2 88/1/2 96/1/2
f 74/7/2 75/7/2 97/7/2
f 96/2/2 89/2/2 97/2/2
f 89/2/2 74/2/2 97/2/2
f 97/7/2 75/7/2 98/7/2
f 94/7/2 95/7/2 99/7/2
f 95/7/2 96/7/2 99/7/2
f 96/7/2 97/7/2 99/7/2
f 92/7/2 93/7/2 99/7/2
f 91/7/2 92/7/2 99/7/2
f 93/7/2 94/7/2 99/7/2
f 99/7/2 97/7/2 100/7/2
f 103/7/3 102/7/3 101/7/3
f 104/7/3 102/7/3 103/7/3
f 109/7/3 106/7/3 105/7/3
f 110/7/3 106/7/3 109/7/3
f 111/7/3 108/7/3 107/7/3
f 112/7/3 108/7/3 111/7/3
f 115/6/3 114/6/3 113/6/3
f 116/6/3 114/6/3 115/6/3
f 119/2/3 118/2/3 117/2/3
f 120/2/3 118/2/3 119/2/3
f 121/6/4 122/6/4 123/6/4
f 123/6/4 122/6/4 124/6/4
f 125/2/4 126/2/4 127/2/4
f 127/2/4 126/2/4 128/2/4
f 129/7/4 130/7/4 133/7/4
f 133/7/4 130/7/4 134/7/4
f 131/7/4 132/7/4 135/7/4
f 135/7/4 132/7/4 136/7/4
f 137/7/4 138/7/4 139/7/4
f 139/7/4 138/7/4 140/7/4
f 143/7/5 142/7/5 141/7/5
f 144/7/5 142/7/5 143/7/5
f 147/7/5 146/7/5 145/7/5
f 148/7/5 146/7/5 147/7/5
f 151/7/5 150/7/5 149/7/5
f 152/7/5 150/7/5 151/7/5
f 155/6/5 154/6/5 153/6/5
f 156/6/5 154/6/5 155/6/5
f 157/5/5 156/5/5 155/5/5
f 158/5/5 156/5/5 157/5/5
f 159/4/5 158/4/5 157/4/5
f 160/4/5 158/4/5 159/4/5
f 161/3/5 160/3/5 159/3/5
f 162/3/5 160/3/5 161/3/5
f 163/1/5 162/1/5 161/1/5
f 164/1/5 162/1/5 163/1/5
f 165/2/5 164/2/5 163/2/5
f 166/2/5 164/2/5 165/2/5
f 169/6/5 168/6/5 167/6/5
f 170/6/5 168/6/5 169/6/5
f 171/5/5 170/5/5 169/5/5
f 172/5/5 170/5/5 171/5/5
f 173/4/5 172/4/5 171/4/5
f 174/4/5 172/4/5 173/4/5
f 175/3/5 174/3/5 173/3/5
f 176/3/5 174/3/5 175/3/5
f 177/1/5 176/1/5 175/1/5
f 178/1/5 176/1/5 177/1/5
f 179/2/5 178/2/5 177/2/5
f 180/2/5 178/2/5 179/2/5
f 181/6/6 182/6/6 183/6/6
f 183/6/6 182/6/6 184/6/6
f 183/5/6 184/5/6 185/5/6
f 185/5/6 184/5/6 186/5/6
f 185/4/6 186/4/6 187/4/6
f 187/4/6 186/4/6 188/4/6
f 187/3/6 188/3/6 189/3/6
f 189/3/6 188/3/6 190/3/6
f 189/1/6 190/1/6 191/1/6
f 191/1/6 190/1/6 192/1/6
f 191/2/6 192/2/6 193/2/6
f 193/2/6 192/2/6 194/2/6
f 195/6/6 196/6/6 197/6/6
f 197/6/6 196/6/6 198/6/6
f 197/5/6 198/5/6 199/5/6
f 199/5/6 198/5/6 200/5/6
f 199/4/6 200/4/6 201/4/6
f 201/4/6 200/4/6 202/4/6
f 201/3/6 202/3/6 203/3/6
f 203/3/6 202/3/6 204/3/6
f 203/1/6 204/1/6 205/1/6
f 205/1/6 204/1/6 206/1/6
f 205/2/6 206/2/6 207/2/6
f 207/2/6 206/2/6 208/2/6
f 209/7/6 210/7/6 211/7/6
f 211/7/6 210/7/6 212/7/6
f 213/7/6 214/7/6 215/7/6
f 215/7/6 214/7/6 216/7/6
f 217/7/6 218/7/6 219/7/6
f 219/7/6 218/7/6 220/7/6
