# This file uses centimeters as units for non-parametric coordinates.

mtllib fattyFare_rocket.mtl
g default
v 2.092458 1.541837 -0.707107
v 2.092458 0.834731 -1.000000
v 2.092458 0.127624 -0.707107
v 2.092458 -0.165269 0.000000
v 2.092458 0.127624 0.707107
v 2.092458 0.834731 1.000000
v 2.092458 1.541837 0.707107
v 2.092458 1.834731 0.000000
v -2.092458 1.541837 -0.707107
v -2.092459 0.834731 -1.000000
v -2.092459 0.127624 -0.707107
v -2.092458 -0.165269 0.000000
v -2.092458 0.127624 0.707107
v -2.092458 0.834731 1.000000
v -2.092458 1.541837 0.707107
v -2.092458 1.834731 0.000000
v -3.927117 0.834731 0.000000
v -2.266493 1.634731 0.000000
v -2.266493 1.400416 0.565685
v -2.266493 0.834731 0.800000
v -2.266493 0.269045 0.565685
v -2.266493 0.034731 0.000000
v -2.266493 0.269045 -0.565685
v -2.266493 0.834731 -0.800000
v -2.266493 1.400416 -0.565685
v 2.092458 1.634731 0.000000
v 2.092458 1.400416 0.565685
v 2.092458 0.834731 0.800000
v 2.092458 0.269045 0.565685
v 2.092458 0.034731 0.000000
v 2.092458 0.269045 -0.565685
v 2.092458 0.834731 -0.800000
v 2.092458 1.400416 -0.565685
v 1.079553 0.834731 -0.800000
v 1.079554 1.400416 -0.565685
v 1.079554 0.834731 0.000000
v 1.079553 0.269045 -0.565685
v 1.079554 0.034731 0.000000
v 1.079554 0.269045 0.565685
v 1.079554 0.834731 0.800000
v 1.079554 1.400416 0.565685
v 1.079554 1.634731 0.000000
v 2.092458 1.471127 0.636396
v 2.092458 0.834731 0.900000
v 2.092458 0.198335 0.636396
v 2.092458 -0.065269 0.000000
v 2.092458 0.198335 -0.636396
v 2.092458 0.834731 -0.900000
v 2.092458 1.471127 -0.636396
v 2.092458 1.734731 0.000000
v 2.392036 1.734731 0.000000
v 2.392036 1.471127 0.636396
v 2.392036 1.400416 0.565685
v 2.392036 1.634731 0.000000
v 2.392036 0.834731 0.900000
v 2.392036 0.834731 0.800000
v 2.392036 0.198335 0.636396
v 2.392036 0.269045 0.565685
v 2.392036 -0.065269 0.000000
v 2.392036 0.034731 0.000000
v 2.392036 0.198335 -0.636396
v 2.392036 0.269045 -0.565685
v 2.392036 0.834731 -0.900000
v 2.392036 0.834731 -0.800000
v 2.392036 1.471127 -0.636396
v 2.392036 1.400416 -0.565685
vt 0.610485 0.045765
vt 0.500000 0.000000
vt 0.389515 0.045765
vt 0.343750 0.156250
vt 0.389515 0.266735
vt 0.500000 0.312500
vt 0.610485 0.266735
vt 0.656250 0.156250
vt 0.375000 0.312500
vt 0.406250 0.312500
vt 0.437500 0.312500
vt 0.468750 0.312500
vt 0.500000 0.312500
vt 0.531250 0.312500
vt 0.562500 0.312500
vt 0.593750 0.312500
vt 0.625000 0.312500
vt 0.375000 0.688440
vt 0.406250 0.688440
vt 0.437500 0.688440
vt 0.468750 0.688440
vt 0.500000 0.688440
vt 0.531250 0.688440
vt 0.562500 0.688440
vt 0.593750 0.688440
vt 0.625000 0.688440
vt 0.610485 0.733265
vt 0.500000 0.687500
vt 0.389515 0.733265
vt 0.343750 0.843750
vt 0.389515 0.954235
vt 0.500000 1.000000
vt 0.610485 0.954235
vt 0.656250 0.843750
vt 0.500000 0.150000
vt 0.500000 0.837500
vt 0.625000 0.842500
vt 0.588388 0.754112
vt 0.500000 0.717500
vt 0.411612 0.754112
vt 0.375000 0.842500
vt 0.411612 0.930888
vt 0.500000 0.967500
vt 0.588388 0.930888
vt 0.625000 0.155000
vt 0.588388 0.243388
vt 0.500000 0.280000
vt 0.411612 0.243388
vt 0.375000 0.155000
vt 0.411612 0.066612
vt 0.500000 0.030000
vt 0.588388 0.066612
vt 0.500000 0.030000
vt 0.588388 0.066612
vt 0.411612 0.066612
vt 0.375000 0.155000
vt 0.411612 0.243388
vt 0.500000 0.280000
vt 0.588388 0.243388
vt 0.625000 0.155000
vt 0.599437 0.255062
vt 0.500000 0.296250
vt 0.400563 0.255062
vt 0.359375 0.155625
vt 0.400563 0.056188
vt 0.500000 0.015000
vt 0.599437 0.056188
vt 0.640625 0.155625
vt 0.640625 0.155625
vt 0.599437 0.255062
vt 0.588388 0.243388
vt 0.625000 0.155000
vt 0.500000 0.296250
vt 0.500000 0.280000
vt 0.400563 0.255062
vt 0.411612 0.243388
vt 0.359375 0.155625
vt 0.375000 0.155000
vt 0.400563 0.056188
vt 0.411612 0.066612
vt 0.500000 0.015000
vt 0.500000 0.030000
vt 0.599437 0.056188
vt 0.588388 0.066612
vn 0.000000 0.382683 -0.923880
vn 0.000000 0.382683 -0.923880
vn 0.000000 0.382683 -0.923880
vn 0.000000 0.382683 -0.923880
vn -0.000000 -0.382683 -0.923880
vn -0.000000 -0.382683 -0.923880
vn -0.000000 -0.382683 -0.923880
vn -0.000000 -0.382683 -0.923880
vn -0.000000 -0.923880 -0.382683
vn -0.000000 -0.923880 -0.382683
vn -0.000000 -0.923880 -0.382683
vn -0.000000 -0.923880 -0.382683
vn -0.000000 -0.923880 0.382683
vn -0.000000 -0.923880 0.382683
vn -0.000000 -0.923880 0.382683
vn -0.000000 -0.923880 0.382683
vn -0.000000 -0.382683 0.923880
vn -0.000000 -0.382683 0.923880
vn -0.000000 -0.382683 0.923880
vn -0.000000 -0.382683 0.923880
vn 0.000000 0.382683 0.923880
vn 0.000000 0.382683 0.923880
vn 0.000000 0.382683 0.923880
vn 0.000000 0.382683 0.923880
vn 0.000000 0.923880 0.382683
vn 0.000000 0.923880 0.382683
vn 0.000000 0.923880 0.382683
vn 0.000000 0.923880 0.382683
vn 0.000000 0.923880 -0.382683
vn 0.000000 0.923880 -0.382683
vn 0.000000 0.923880 -0.382683
vn 0.000000 0.923880 -0.382683
vn 1.000000 -0.000000 -0.000001
vn 1.000000 -0.000000 -0.000000
vn 1.000000 -0.000000 -0.000000
vn 1.000000 -0.000000 -0.000001
vn 1.000000 -0.000000 -0.000000
vn 1.000000 -0.000000 0.000000
vn 1.000000 -0.000000 0.000000
vn 1.000000 -0.000000 -0.000000
vn 1.000000 -0.000000 0.000000
vn -0.754379 0.464173 -0.464173
vn -0.754379 0.000000 -0.656439
vn -0.548145 0.000000 -0.836383
vn -0.548145 0.591412 -0.591412
vn -0.754379 -0.464173 -0.464172
vn -0.548145 -0.591412 -0.591412
vn -0.754378 -0.656440 0.000000
vn -0.548145 -0.836384 0.000000
vn -0.754378 -0.464173 0.464173
vn -0.548145 -0.591413 0.591412
vn -0.754378 -0.000000 0.656440
vn -0.548145 -0.000000 0.836384
vn -0.754378 0.464173 0.464173
vn -0.548145 0.591412 0.591413
vn -0.754378 0.656440 0.000000
vn -0.548145 0.836384 0.000000
vn -1.000000 -0.000000 -0.000000
vn 1.000000 -0.000000 0.000000
vn 1.000000 -0.000000 0.000000
vn 1.000000 -0.000000 0.000000
vn 1.000000 -0.000000 0.000000
vn 1.000000 -0.000000 0.000000
vn 1.000000 -0.000000 0.000000
vn 1.000000 -0.000000 0.000000
vn 1.000000 -0.000000 0.000000
vn 1.000000 0.000000 0.000000
vn 1.000000 0.000000 0.000000
vn 1.000000 0.000000 0.000000
vn 1.000000 0.000000 0.000000
vn 1.000000 -0.000000 0.000000
vn 1.000000 -0.000000 0.000000
vn 1.000000 -0.000000 0.000000
vn 1.000000 -0.000000 0.000000
vn -0.000000 -0.382683 0.923880
vn -0.000000 -0.382683 0.923880
vn -0.000000 -0.382683 0.923880
vn -0.000000 -0.382683 0.923880
vn 0.000000 0.382683 0.923880
vn 0.000000 0.382683 0.923880
vn 0.000000 0.382683 0.923880
vn 0.000000 0.382683 0.923880
vn 0.000000 0.923880 0.382683
vn 0.000000 0.923880 0.382683
vn 0.000000 0.923880 0.382683
vn 0.000000 0.923880 0.382683
vn 0.000000 0.923880 -0.382683
vn 0.000000 0.923880 -0.382683
vn 0.000000 0.923880 -0.382683
vn 0.000000 0.923880 -0.382683
vn 0.000000 0.382683 -0.923880
vn 0.000000 0.382683 -0.923880
vn 0.000000 0.382683 -0.923880
vn 0.000000 0.382683 -0.923880
vn -0.000000 -0.382683 -0.923880
vn -0.000000 -0.382683 -0.923880
vn -0.000000 -0.382683 -0.923880
vn -0.000000 -0.382683 -0.923880
vn -0.000000 -0.923880 -0.382683
vn -0.000000 -0.923880 -0.382683
vn -0.000000 -0.923880 -0.382683
vn -0.000000 -0.923880 -0.382683
vn -0.000000 -0.923880 0.382683
vn -0.000000 -0.923880 0.382683
vn -0.000000 -0.923880 0.382683
vn -0.000000 -0.923880 0.382683
vn 1.000000 -0.000000 0.000000
vn 1.000000 -0.000000 0.000000
vn 1.000000 -0.000000 0.000000
vn 1.000000 -0.000000 0.000000
vn 1.000000 -0.000000 0.000000
vn 1.000000 -0.000000 0.000000
vn 1.000000 0.000000 -0.000000
vn 1.000000 0.000000 -0.000000
vn 1.000000 0.000000 -0.000000
vn 1.000000 0.000000 -0.000000
vn 1.000000 -0.000000 0.000000
vn 1.000000 -0.000000 0.000000
vn 1.000000 -0.000000 0.000000
vn 1.000000 -0.000000 0.000000
vn 1.000000 -0.000000 0.000000
vn 1.000000 -0.000000 0.000000
vn 0.000000 0.923880 0.382683
vn 0.000000 0.923880 0.382683
vn 0.000000 0.923880 0.382683
vn 0.000000 0.923880 0.382683
vn -0.000000 -0.923880 -0.382683
vn -0.000000 -0.923880 -0.382683
vn -0.000000 -0.923880 -0.382683
vn -0.000000 -0.923880 -0.382683
vn 0.000000 0.382683 0.923880
vn 0.000000 0.382683 0.923880
vn 0.000000 0.382683 0.923880
vn 0.000000 0.382683 0.923880
vn -0.000000 -0.382683 -0.923880
vn -0.000000 -0.382683 -0.923880
vn -0.000000 -0.382683 -0.923880
vn -0.000000 -0.382683 -0.923880
vn -0.000000 -0.382684 0.923880
vn -0.000000 -0.382684 0.923880
vn -0.000000 -0.382684 0.923880
vn -0.000000 -0.382684 0.923880
vn 0.000000 0.382684 -0.923880
vn 0.000000 0.382684 -0.923880
vn 0.000000 0.382684 -0.923880
vn 0.000000 0.382684 -0.923880
vn -0.000000 -0.923880 0.382683
vn -0.000000 -0.923880 0.382683
vn -0.000000 -0.923880 0.382683
vn -0.000000 -0.923880 0.382683
vn 0.000000 0.923880 -0.382683
vn 0.000000 0.923880 -0.382683
vn 0.000000 0.923880 -0.382683
vn 0.000000 0.923880 -0.382683
vn -0.000000 -0.923880 -0.382683
vn -0.000000 -0.923880 -0.382683
vn -0.000000 -0.923880 -0.382683
vn -0.000000 -0.923880 -0.382683
vn 0.000000 0.923880 0.382683
vn 0.000000 0.923880 0.382683
vn 0.000000 0.923880 0.382683
vn 0.000000 0.923880 0.382683
vn -0.000000 -0.382683 -0.923880
vn -0.000000 -0.382683 -0.923880
vn -0.000000 -0.382683 -0.923880
vn -0.000000 -0.382683 -0.923880
vn 0.000000 0.382683 0.923880
vn 0.000000 0.382683 0.923880
vn 0.000000 0.382683 0.923880
vn 0.000000 0.382683 0.923880
vn 0.000000 0.382683 -0.923880
vn 0.000000 0.382683 -0.923880
vn 0.000000 0.382683 -0.923880
vn 0.000000 0.382683 -0.923880
vn -0.000000 -0.382683 0.923880
vn -0.000000 -0.382683 0.923880
vn -0.000000 -0.382683 0.923880
vn -0.000000 -0.382683 0.923880
vn 0.000000 0.923880 -0.382683
vn 0.000000 0.923880 -0.382683
vn 0.000000 0.923880 -0.382683
vn 0.000000 0.923880 -0.382683
vn -0.000000 -0.923880 0.382683
vn -0.000000 -0.923880 0.382683
vn -0.000000 -0.923880 0.382683
vn -0.000000 -0.923880 0.382683
s off
g pCylinder1
usemtl initialShadingGroup
f 1/9/1 2/10/2 10/19/3 9/18/4
f 2/10/5 3/11/6 11/20/7 10/19/8
f 3/11/9 4/12/10 12/21/11 11/20/12
f 4/12/13 5/13/14 13/22/15 12/21/16
f 5/13/17 6/14/18 14/23/19 13/22/20
f 6/14/21 7/15/22 15/24/23 14/23/24
f 7/15/25 8/16/26 16/25/27 15/24/28
f 8/16/29 1/17/30 9/26/31 16/25/32
s 1
f 34/53/33 35/54/34 36/35/35
f 37/55/36 34/53/33 36/35/35
f 38/56/37 37/55/36 36/35/35
f 39/57/38 38/56/37 36/35/35
f 40/58/39 39/57/38 36/35/35
f 41/59/40 40/58/39 36/35/35
f 42/60/41 41/59/40 36/35/35
f 35/54/34 42/60/41 36/35/35
s 2
f 9/33/42 10/32/43 24/43/44 25/44/45
f 10/32/43 11/31/46 23/42/47 24/43/44
f 11/31/46 12/30/48 22/41/49 23/42/47
f 12/30/48 13/29/50 21/40/51 22/41/49
f 13/29/50 14/28/52 20/39/53 21/40/51
f 14/28/52 15/27/54 19/38/55 20/39/53
f 15/27/54 16/34/56 18/37/57 19/38/55
f 16/34/56 9/33/42 25/44/45 18/37/57
f 19/38/55 18/37/57 17/36/58
f 20/39/53 19/38/55 17/36/58
f 21/40/51 20/39/53 17/36/58
f 22/41/49 21/40/51 17/36/58
f 23/42/47 22/41/49 17/36/58
f 24/43/44 23/42/47 17/36/58
f 25/44/45 24/43/44 17/36/58
f 18/37/57 25/44/45 17/36/58
s 3
f 51/69/59 52/70/60 53/71/61 54/72/62
f 52/70/60 55/73/63 56/74/64 53/71/61
f 55/73/63 57/75/65 58/76/66 56/74/64
f 57/75/65 59/77/67 60/78/68 58/76/66
f 59/77/67 61/79/69 62/80/70 60/78/68
f 61/79/69 63/81/71 64/82/72 62/80/70
f 63/81/71 65/83/73 66/84/74 64/82/72
f 65/83/73 51/69/59 54/72/62 66/84/74
s off
f 32/51/75 33/52/76 35/54/77 34/53/78
f 31/50/79 32/51/80 34/53/81 37/55/82
f 30/49/83 31/50/84 37/55/85 38/56/86
f 29/48/87 30/49/88 38/56/89 39/57/90
f 28/47/91 29/48/92 39/57/93 40/58/94
f 27/46/95 28/47/96 40/58/97 41/59/98
f 26/45/99 27/46/100 41/59/101 42/60/102
f 33/52/103 26/45/104 42/60/105 35/54/106
s 4
f 7/7/107 6/6/108 44/62/109 43/61/110
f 6/6/108 5/5/111 45/63/112 44/62/109
f 5/5/111 4/4/113 46/64/114 45/63/112
f 4/4/113 3/3/115 47/65/116 46/64/114
f 3/3/115 2/2/117 48/66/118 47/65/116
f 2/2/117 1/1/119 49/67/120 48/66/118
f 1/1/119 8/8/121 50/68/122 49/67/120
f 8/8/121 7/7/107 43/61/110 50/68/122
s off
f 50/68/123 43/61/124 52/70/125 51/69/126
f 27/46/127 26/45/128 54/72/129 53/71/130
f 43/61/131 44/62/132 55/73/133 52/70/134
f 28/47/135 27/46/136 53/71/137 56/74/138
f 44/62/139 45/63/140 57/75/141 55/73/142
f 29/48/143 28/47/144 56/74/145 58/76/146
f 45/63/147 46/64/148 59/77/149 57/75/150
f 30/49/151 29/48/152 58/76/153 60/78/154
f 46/64/155 47/65/156 61/79/157 59/77/158
f 31/50/159 30/49/160 60/78/161 62/80/162
f 47/65/163 48/66/164 63/81/165 61/79/166
f 32/51/167 31/50/168 62/80/169 64/82/170
f 48/66/171 49/67/172 65/83/173 63/81/174
f 33/52/175 32/51/176 64/82/177 66/84/178
f 49/67/179 50/68/180 51/69/181 65/83/182
f 26/45/183 33/52/184 66/84/185 54/72/186
