# This file uses centimeters as units for non-parametric coordinates.

mtllib fattyFare_wallPiece.mtl
g default
v -0.148246 3.693773 1.735245
v -0.148246 3.693773 -1.664755
v -0.148246 0.293773 1.735245
v -0.148246 0.293773 -1.664755
v 0.151265 3.693773 1.735245
v 0.151265 3.693773 -1.664755
v 0.151265 0.293773 -1.664755
v 0.151265 0.293773 1.735245
vt 0.375000 0.500000
vt 0.625000 0.500000
vt 0.375000 0.750000
vt 0.625000 0.750000
vt 0.875000 0.000000
vt 0.875000 0.250000
vt 0.125000 0.000000
vt 0.125000 0.250000
vt 0.140437 0.250000
vt 0.375000 0.484563
vt 0.625000 0.484563
vt 0.859563 0.250000
vt 0.625000 0.765437
vt 0.859563 0.000000
vt 0.140437 0.000000
vt 0.375000 0.765437
vn 0.000000 1.000000 0.000000
vn 0.000000 1.000000 0.000000
vn 0.000000 1.000000 0.000000
vn 0.000000 1.000000 0.000000
vn -1.000000 0.000000 -0.000000
vn -1.000000 0.000000 -0.000000
vn -1.000000 0.000000 -0.000000
vn -1.000000 0.000000 -0.000000
vn 0.000000 -1.000000 0.000000
vn 0.000000 -1.000000 0.000000
vn 0.000000 -1.000000 0.000000
vn 0.000000 -1.000000 0.000000
vn 0.000000 0.000000 -1.000000
vn 0.000000 0.000000 -1.000000
vn 0.000000 0.000000 -1.000000
vn 0.000000 0.000000 -1.000000
vn -0.000000 0.000000 1.000000
vn -0.000000 0.000000 1.000000
vn -0.000000 0.000000 1.000000
vn -0.000000 0.000000 1.000000
vn 1.000000 -0.000000 0.000000
vn 1.000000 -0.000000 0.000000
vn 1.000000 -0.000000 0.000000
vn 1.000000 -0.000000 0.000000
s off
g pasted__pCube3 group1
usemtl initialShadingGroup
f 5/10/1 6/11/2 2/2/3 1/1/4
f 1/1/5 2/2/6 4/4/7 3/3/8
f 3/3/9 4/4/10 7/13/11 8/16/12
f 6/12/13 7/14/14 4/5/15 2/6/16
f 3/7/17 8/15/18 5/9/19 1/8/20
f 6/11/21 5/9/22 8/16/23 7/14/24
