# MagicaVoxel @ Ephtracy

# material
mtllib centipede_idle-01.mtl
usemtl palette

# normals
vn -1 0 0
vn 1 0 0
vn 0 0 1
vn 0 0 -1
vn 0 -1 0
vn 0 1 0

# texcoords
vt 0.0488281 0.5
vt 0.189453 0.5
vt 0.533203 0.5
vt 0.537109 0.5
vt 0.916016 0.5

# verts
v -5.5 2 7
v -5.5 2 4
v -5.5 3 7
v -5.5 3 4
v -4.5 2 4
v -4.5 2 1
v -4.5 2 -1
v -4.5 2 -3
v -4.5 2 -4
v -4.5 2 -6
v -4.5 3 4
v -4.5 3 1
v -4.5 3 -1
v -4.5 3 -3
v -4.5 3 -4
v -4.5 3 -6
v -3.5 1 1
v -3.5 1 -1
v -3.5 2 1
v -3.5 2 -1
v -3.5 2 -3
v -3.5 2 -4
v -3.5 2 -6
v -3.5 2 -7
v -3.5 3 1
v -3.5 3 -1
v -3.5 3 -3
v -3.5 3 -4
v -3.5 3 -6
v -3.5 3 -7
v -2.5 2 2
v -2.5 2 1
v -2.5 2 -1
v -2.5 2 -2
v -2.5 3 2
v -2.5 3 1
v -2.5 3 -1
v -2.5 3 -2
v -2.5 4 1
v -2.5 4 -1
v -1.5 1 2
v -1.5 1 1
v -1.5 1 -1
v -1.5 1 -2
v -1.5 2 2
v -1.5 2 1
v -1.5 2 -1
v -1.5 2 -2
v -1.5 3 2
v -1.5 3 1
v -1.5 3 -1
v -1.5 3 -2
v -1.5 4 2
v -1.5 4 1
v -1.5 4 -1
v -1.5 4 -2
v 1.5 0 5
v 1.5 0 4
v 1.5 0 -4
v 1.5 0 -5
v 1.5 1 5
v 1.5 1 4
v 1.5 1 2
v 1.5 1 -2
v 1.5 1 -4
v 1.5 1 -5
v 1.5 2 4
v 1.5 2 2
v 1.5 2 -2
v 1.5 2 -4
v -4.5 2 7
v -4.5 2 4
v -4.5 3 7
v -4.5 3 4
v -3.5 2 4
v -3.5 2 1
v -3.5 2 -1
v -3.5 2 -3
v -3.5 2 -4
v -3.5 2 -6
v -3.5 3 4
v -3.5 3 1
v -3.5 3 -1
v -3.5 3 -3
v -3.5 3 -4
v -3.5 3 -6
v -2.5 2 -3
v -2.5 2 -4
v -2.5 2 -6
v -2.5 2 -7
v -2.5 3 -3
v -2.5 3 -4
v -2.5 3 -6
v -2.5 3 -7
v 1.5 3 2
v 1.5 3 1
v 1.5 3 -1
v 1.5 3 -2
v 1.5 4 2
v 1.5 4 1
v 1.5 4 -1
v 1.5 4 -2
v 2.5 0 5
v 2.5 0 4
v 2.5 0 -4
v 2.5 0 -5
v 2.5 1 5
v 2.5 1 4
v 2.5 1 2
v 2.5 1 -2
v 2.5 1 -4
v 2.5 1 -5
v 2.5 2 4
v 2.5 2 2
v 2.5 2 1
v 2.5 2 -1
v 2.5 2 -2
v 2.5 2 -4
v 2.5 3 2
v 2.5 3 1
v 2.5 3 -1
v 2.5 3 -2
v 2.5 4 1
v 2.5 4 -1
v 3.5 2 1
v 3.5 2 -1
v 3.5 3 1
v 3.5 3 -1
v -5.5 2 7
v -5.5 3 7
v -4.5 2 7
v -4.5 3 7
v 1.5 0 5
v 1.5 1 5
v 2.5 0 5
v 2.5 1 5
v -4.5 2 4
v -4.5 3 4
v -3.5 2 4
v -3.5 3 4
v 1.5 1 4
v 1.5 2 4
v 2.5 1 4
v 2.5 2 4
v -2.5 2 2
v -2.5 3 2
v -1.5 1 2
v -1.5 2 2
v -1.5 3 2
v -1.5 4 2
v -0.5 2 2
v -0.5 3 2
v -0.5 4 2
v 0.5 2 2
v 0.5 3 2
v 0.5 4 2
v 1.5 1 2
v 1.5 2 2
v 1.5 3 2
v 1.5 4 2
v 2.5 2 2
v 2.5 3 2
v -3.5 1 1
v -3.5 2 1
v -3.5 3 1
v -2.5 2 1
v -2.5 3 1
v -2.5 4 1
v -1.5 1 1
v -1.5 2 1
v -1.5 3 1
v -1.5 4 1
v 1.5 3 1
v 1.5 4 1
v 2.5 2 1
v 2.5 3 1
v 2.5 4 1
v 3.5 2 1
v 3.5 3 1
v -4.5 2 -1
v -4.5 3 -1
v -3.5 2 -1
v -3.5 3 -1
v -3.5 2 -3
v -3.5 3 -3
v -2.5 2 -3
v -2.5 3 -3
v -4.5 2 -4
v -4.5 3 -4
v -3.5 2 -4
v -3.5 3 -4
v 1.5 0 -4
v 1.5 1 -4
v 2.5 0 -4
v 2.5 1 -4
v -3.5 2 -6
v -3.5 3 -6
v -2.5 2 -6
v -2.5 3 -6
v -5.5 2 4
v -5.5 3 4
v -4.5 2 4
v -4.5 3 4
v 1.5 0 4
v 1.5 1 4
v 2.5 0 4
v 2.5 1 4
v -4.5 2 1
v -4.5 3 1
v -3.5 2 1
v -3.5 3 1
v -3.5 1 -1
v -3.5 2 -1
v -3.5 3 -1
v -2.5 2 -1
v -2.5 3 -1
v -2.5 4 -1
v -1.5 1 -1
v -1.5 2 -1
v -1.5 3 -1
v -1.5 4 -1
v 1.5 3 -1
v 1.5 4 -1
v 2.5 2 -1
v 2.5 3 -1
v 2.5 4 -1
v 3.5 2 -1
v 3.5 3 -1
v -2.5 2 -2
v -2.5 3 -2
v -1.5 1 -2
v -1.5 2 -2
v -1.5 3 -2
v -1.5 4 -2
v -0.5 2 -2
v -0.5 3 -2
v -0.5 4 -2
v 0.5 2 -2
v 0.5 3 -2
v 0.5 4 -2
v 1.5 1 -2
v 1.5 2 -2
v 1.5 3 -2
v 1.5 4 -2
v 2.5 2 -2
v 2.5 3 -2
v -4.5 2 -3
v -4.5 3 -3
v -3.5 2 -3
v -3.5 3 -3
v -3.5 2 -4
v -3.5 3 -4
v -2.5 2 -4
v -2.5 3 -4
v 1.5 1 -4
v 1.5 2 -4
v 2.5 1 -4
v 2.5 2 -4
v 1.5 0 -5
v 1.5 1 -5
v 2.5 0 -5
v 2.5 1 -5
v -4.5 2 -6
v -4.5 3 -6
v -3.5 2 -6
v -3.5 3 -6
v -3.5 2 -7
v -3.5 3 -7
v -2.5 2 -7
v -2.5 3 -7
v 1.5 0 5
v 2.5 0 5
v 1.5 0 4
v 2.5 0 4
v 1.5 0 -4
v 2.5 0 -4
v 1.5 0 -5
v 2.5 0 -5
v 1.5 1 4
v 2.5 1 4
v -1.5 1 2
v 1.5 1 2
v 2.5 1 2
v -3.5 1 1
v -1.5 1 1
v -3.5 1 -1
v -1.5 1 -1
v -1.5 1 -2
v 1.5 1 -2
v 2.5 1 -2
v 1.5 1 -4
v 2.5 1 -4
v -5.5 2 7
v -4.5 2 7
v -5.5 2 4
v -4.5 2 4
v -3.5 2 4
v -2.5 2 2
v -1.5 2 2
v -4.5 2 1
v -3.5 2 1
v -2.5 2 1
v -1.5 2 1
v 2.5 2 1
v 3.5 2 1
v -4.5 2 -1
v -3.5 2 -1
v -2.5 2 -1
v -1.5 2 -1
v 2.5 2 -1
v 3.5 2 -1
v -2.5 2 -2
v -1.5 2 -2
v -4.5 2 -3
v -3.5 2 -3
v -2.5 2 -3
v -4.5 2 -4
v -3.5 2 -4
v -2.5 2 -4
v -4.5 2 -6
v -3.5 2 -6
v -2.5 2 -6
v -3.5 2 -7
v -2.5 2 -7
v 1.5 1 5
v 2.5 1 5
v 1.5 1 4
v 2.5 1 4
v 1.5 1 -4
v 2.5 1 -4
v 1.5 1 -5
v 2.5 1 -5
v 1.5 2 4
v 2.5 2 4
v 1.5 2 2
v 2.5 2 2
v 1.5 2 -2
v 2.5 2 -2
v 1.5 2 -4
v 2.5 2 -4
v -5.5 3 7
v -4.5 3 7
v -5.5 3 4
v -4.5 3 4
v -3.5 3 4
v -2.5 3 2
v -1.5 3 2
v 1.5 3 2
v 2.5 3 2
v -4.5 3 1
v -3.5 3 1
v -2.5 3 1
v -1.5 3 1
v 1.5 3 1
v 2.5 3 1
v 3.5 3 1
v -4.5 3 -1
v -3.5 3 -1
v -2.5 3 -1
v -1.5 3 -1
v 1.5 3 -1
v 2.5 3 -1
v 3.5 3 -1
v -2.5 3 -2
v -1.5 3 -2
v 1.5 3 -2
v 2.5 3 -2
v -4.5 3 -3
v -3.5 3 -3
v -2.5 3 -3
v -4.5 3 -4
v -3.5 3 -4
v -2.5 3 -4
v -4.5 3 -6
v -3.5 3 -6
v -2.5 3 -6
v -3.5 3 -7
v -2.5 3 -7
v -1.5 4 2
v -0.5 4 2
v 0.5 4 2
v 1.5 4 2
v -2.5 4 1
v -1.5 4 1
v -0.5 4 1
v 0.5 4 1
v 1.5 4 1
v 2.5 4 1
v -2.5 4 -1
v -1.5 4 -1
v -0.5 4 -1
v 0.5 4 -1
v 1.5 4 -1
v 2.5 4 -1
v -1.5 4 -2
v -0.5 4 -2
v 0.5 4 -2
v 1.5 4 -2

# faces
f 3/2/1 2/2/1 1/2/1
f 4/2/1 2/2/1 3/2/1
f 11/2/1 6/2/1 5/2/1
f 12/2/1 6/2/1 11/2/1
f 13/2/1 8/2/1 7/2/1
f 14/2/1 8/2/1 13/2/1
f 15/2/1 10/2/1 9/2/1
f 16/2/1 10/2/1 15/2/1
f 19/4/1 18/4/1 17/4/1
f 20/4/1 18/4/1 19/4/1
f 25/1/1 20/1/1 19/1/1
f 26/1/1 20/1/1 25/1/1
f 27/2/1 22/2/1 21/2/1
f 28/2/1 22/2/1 27/2/1
f 29/2/1 24/2/1 23/2/1
f 30/2/1 24/2/1 29/2/1
f 35/5/1 32/5/1 31/5/1
f 36/5/1 32/5/1 35/5/1
f 37/5/1 34/5/1 33/5/1
f 38/5/1 34/5/1 37/5/1
f 39/1/1 37/1/1 36/1/1
f 40/1/1 37/1/1 39/1/1
f 45/3/1 42/3/1 41/3/1
f 46/3/1 42/3/1 45/3/1
f 47/3/1 44/3/1 43/3/1
f 48/3/1 44/3/1 47/3/1
f 53/1/1 50/1/1 49/1/1
f 54/1/1 50/1/1 53/1/1
f 55/1/1 52/1/1 51/1/1
f 56/1/1 52/1/1 55/1/1
f 61/2/1 58/2/1 57/2/1
f 62/2/1 58/2/1 61/2/1
f 65/2/1 60/2/1 59/2/1
f 66/2/1 60/2/1 65/2/1
f 67/2/1 63/2/1 62/2/1
f 68/2/1 63/2/1 67/2/1
f 69/2/1 65/2/1 64/2/1
f 70/2/1 65/2/1 69/2/1
f 71/2/2 72/2/2 73/2/2
f 73/2/2 72/2/2 74/2/2
f 75/2/2 76/2/2 81/2/2
f 81/2/2 76/2/2 82/2/2
f 77/2/2 78/2/2 83/2/2
f 83/2/2 78/2/2 84/2/2
f 79/2/2 80/2/2 85/2/2
f 85/2/2 80/2/2 86/2/2
f 87/2/2 88/2/2 91/2/2
f 91/2/2 88/2/2 92/2/2
f 89/2/2 90/2/2 93/2/2
f 93/2/2 90/2/2 94/2/2
f 95/1/2 96/1/2 99/1/2
f 99/1/2 96/1/2 100/1/2
f 97/1/2 98/1/2 101/1/2
f 101/1/2 98/1/2 102/1/2
f 103/2/2 104/2/2 107/2/2
f 107/2/2 104/2/2 108/2/2
f 105/2/2 106/2/2 111/2/2
f 111/2/2 106/2/2 112/2/2
f 108/2/2 109/2/2 113/2/2
f 109/3/2 110/3/2 114/3/2
f 113/2/2 109/2/2 114/2/2
f 114/3/2 110/3/2 115/3/2
f 115/3/2 110/3/2 116/3/2
f 110/2/2 111/2/2 117/2/2
f 116/3/2 110/3/2 117/3/2
f 117/2/2 111/2/2 118/2/2
f 114/5/2 115/5/2 119/5/2
f 119/5/2 115/5/2 120/5/2
f 116/5/2 117/5/2 121/5/2
f 121/5/2 117/5/2 122/5/2
f 120/1/2 121/1/2 123/1/2
f 123/1/2 121/1/2 124/1/2
f 125/1/2 126/1/2 127/1/2
f 127/1/2 126/1/2 128/1/2
f 131/2/3 130/2/3 129/2/3
f 132/2/3 130/2/3 131/2/3
f 135/2/3 134/2/3 133/2/3
f 136/2/3 134/2/3 135/2/3
f 139/2/3 138/2/3 137/2/3
f 140/2/3 138/2/3 139/2/3
f 143/2/3 142/2/3 141/2/3
f 144/2/3 142/2/3 143/2/3
f 148/5/3 146/5/3 145/5/3
f 149/5/3 146/5/3 148/5/3
f 151/3/3 148/3/3 147/3/3
f 151/5/3 149/5/3 148/5/3
f 152/1/3 150/1/3 149/1/3
f 152/5/3 149/5/3 151/5/3
f 153/1/3 150/1/3 152/1/3
f 154/3/3 151/3/3 147/3/3
f 154/3/3 152/3/3 151/3/3
f 155/5/3 153/5/3 152/5/3
f 155/3/3 152/3/3 154/3/3
f 156/5/3 153/5/3 155/5/3
f 157/3/3 154/3/3 147/3/3
f 158/5/3 155/5/3 154/5/3
f 158/3/3 154/3/3 157/3/3
f 159/1/3 156/1/3 155/1/3
f 159/5/3 155/5/3 158/5/3
f 160/1/3 156/1/3 159/1/3
f 161/5/3 159/5/3 158/5/3
f 162/5/3 159/5/3 161/5/3
f 166/4/3 164/4/3 163/4/3
f 166/1/3 165/1/3 164/1/3
f 167/1/3 165/1/3 166/1/3
f 169/4/3 166/4/3 163/4/3
f 170/4/3 166/4/3 169/4/3
f 171/1/3 168/1/3 167/1/3
f 172/1/3 168/1/3 171/1/3
f 176/1/3 174/1/3 173/1/3
f 177/1/3 174/1/3 176/1/3
f 178/1/3 176/1/3 175/1/3
f 179/1/3 176/1/3 178/1/3
f 182/2/3 181/2/3 180/2/3
f 183/2/3 181/2/3 182/2/3
f 186/2/3 185/2/3 184/2/3
f 187/2/3 185/2/3 186/2/3
f 190/2/3 189/2/3 188/2/3
f 191/2/3 189/2/3 190/2/3
f 194/2/3 193/2/3 192/2/3
f 195/2/3 193/2/3 194/2/3
f 198/2/3 197/2/3 196/2/3
f 199/2/3 197/2/3 198/2/3
f 200/2/4 201/2/4 202/2/4
f 202/2/4 201/2/4 203/2/4
f 204/2/4 205/2/4 206/2/4
f 206/2/4 205/2/4 207/2/4
f 208/2/4 209/2/4 210/2/4
f 210/2/4 209/2/4 211/2/4
f 212/4/4 213/4/4 215/4/4
f 213/1/4 214/1/4 215/1/4
f 215/1/4 214/1/4 216/1/4
f 212/4/4 215/4/4 218/4/4
f 218/4/4 215/4/4 219/4/4
f 216/1/4 217/1/4 220/1/4
f 220/1/4 217/1/4 221/1/4
f 222/1/4 223/1/4 225/1/4
f 225/1/4 223/1/4 226/1/4
f 224/1/4 225/1/4 227/1/4
f 227/1/4 225/1/4 228/1/4
f 229/5/4 230/5/4 232/5/4
f 232/5/4 230/5/4 233/5/4
f 231/3/4 232/3/4 235/3/4
f 232/5/4 233/5/4 235/5/4
f 233/1/4 234/1/4 236/1/4
f 235/5/4 233/5/4 236/5/4
f 236/1/4 234/1/4 237/1/4
f 231/3/4 235/3/4 238/3/4
f 235/3/4 236/3/4 238/3/4
f 236/5/4 237/5/4 239/5/4
f 238/3/4 236/3/4 239/3/4
f 239/5/4 237/5/4 240/5/4
f 231/3/4 238/3/4 241/3/4
f 238/5/4 239/5/4 242/5/4
f 241/3/4 238/3/4 242/3/4
f 239/1/4 240/1/4 243/1/4
f 242/5/4 239/5/4 243/5/4
f 243/1/4 240/1/4 244/1/4
f 242/5/4 243/5/4 245/5/4
f 245/5/4 243/5/4 246/5/4
f 247/2/4 248/2/4 249/2/4
f 249/2/4 248/2/4 250/2/4
f 251/2/4 252/2/4 253/2/4
f 253/2/4 252/2/4 254/2/4
f 255/2/4 256/2/4 257/2/4
f 257/2/4 256/2/4 258/2/4
f 259/2/4 260/2/4 261/2/4
f 261/2/4 260/2/4 262/2/4
f 263/2/4 264/2/4 265/2/4
f 265/2/4 264/2/4 266/2/4
f 267/2/4 268/2/4 269/2/4
f 269/2/4 268/2/4 270/2/4
f 273/2/5 272/2/5 271/2/5
f 274/2/5 272/2/5 273/2/5
f 277/2/5 276/2/5 275/2/5
f 278/2/5 276/2/5 277/2/5
f 282/2/5 280/2/5 279/2/5
f 283/2/5 280/2/5 282/2/5
f 285/3/5 282/3/5 281/3/5
f 285/3/5 283/3/5 282/3/5
f 286/4/5 285/4/5 284/4/5
f 287/3/5 283/3/5 285/3/5
f 287/4/5 285/4/5 286/4/5
f 288/3/5 283/3/5 287/3/5
f 289/3/5 283/3/5 288/3/5
f 290/3/5 283/3/5 289/3/5
f 291/2/5 290/2/5 289/2/5
f 292/2/5 290/2/5 291/2/5
f 295/2/5 294/2/5 293/2/5
f 296/2/5 294/2/5 295/2/5
f 300/2/5 297/2/5 296/2/5
f 301/2/5 297/2/5 300/2/5
f 302/5/5 299/5/5 298/5/5
f 303/5/5 299/5/5 302/5/5
f 310/1/5 305/1/5 304/1/5
f 311/1/5 305/1/5 310/1/5
f 312/5/5 309/5/5 308/5/5
f 313/5/5 309/5/5 312/5/5
f 314/2/5 307/2/5 306/2/5
f 315/2/5 307/2/5 314/2/5
f 318/2/5 316/2/5 315/2/5
f 319/2/5 316/2/5 318/2/5
f 320/2/5 318/2/5 317/2/5
f 321/2/5 318/2/5 320/2/5
f 323/2/5 322/2/5 321/2/5
f 324/2/5 322/2/5 323/2/5
f 325/2/6 326/2/6 327/2/6
f 327/2/6 326/2/6 328/2/6
f 329/2/6 330/2/6 331/2/6
f 331/2/6 330/2/6 332/2/6
f 333/2/6 334/2/6 335/2/6
f 335/2/6 334/2/6 336/2/6
f 337/2/6 338/2/6 339/2/6
f 339/2/6 338/2/6 340/2/6
f 341/2/6 342/2/6 343/2/6
f 343/2/6 342/2/6 344/2/6
f 344/2/6 345/2/6 350/2/6
f 350/2/6 345/2/6 351/2/6
f 346/5/6 347/5/6 352/5/6
f 352/5/6 347/5/6 353/5/6
f 348/5/6 349/5/6 354/5/6
f 354/5/6 349/5/6 355/5/6
f 351/1/6 352/1/6 358/1/6
f 358/1/6 352/1/6 359/1/6
f 355/1/6 356/1/6 362/1/6
f 362/1/6 356/1/6 363/1/6
f 359/5/6 360/5/6 364/5/6
f 364/5/6 360/5/6 365/5/6
f 361/5/6 362/5/6 366/5/6
f 366/5/6 362/5/6 367/5/6
f 357/2/6 358/2/6 368/2/6
f 368/2/6 358/2/6 369/2/6
f 369/2/6 370/2/6 372/2/6
f 372/2/6 370/2/6 373/2/6
f 371/2/6 372/2/6 374/2/6
f 374/2/6 372/2/6 375/2/6
f 375/2/6 376/2/6 377/2/6
f 377/2/6 376/2/6 378/2/6
f 379/1/6 380/1/6 384/1/6
f 380/5/6 381/5/6 385/5/6
f 384/1/6 380/1/6 385/1/6
f 381/1/6 382/1/6 386/1/6
f 385/5/6 381/5/6 386/5/6
f 386/1/6 382/1/6 387/1/6
f 384/1/6 385/1/6 389/1/6
f 387/1/6 388/1/6 389/1/6
f 386/1/6 387/1/6 389/1/6
f 385/1/6 386/1/6 389/1/6
f 383/1/6 384/1/6 389/1/6
f 389/1/6 388/1/6 390/1/6
f 390/1/6 388/1/6 391/1/6
f 391/1/6 388/1/6 392/1/6
f 392/1/6 388/1/6 393/1/6
f 393/1/6 388/1/6 394/1/6
f 390/1/6 391/1/6 395/1/6
f 391/5/6 392/5/6 396/5/6
f 395/1/6 391/1/6 396/1/6
f 392/1/6 393/1/6 397/1/6
f 396/5/6 392/5/6 397/5/6
f 397/1/6 393/1/6 398/1/6
