# MagicaVoxel @ Ephtracy

# material
mtllib larva_idle-02.mtl
usemtl palette

# normals
vn -1 0 0
vn 1 0 0
vn 0 0 1
vn 0 0 -1
vn 0 -1 0
vn 0 1 0

# texcoords
vt 0.193359 0.5
vt 0.197266 0.5
vt 0.259766 0.5
vt 0.306641 0.5
vt 0.400391 0.5
vt 0.958984 0.5

# verts
v -9.5 1 2
v -9.5 1 1
v -9.5 1 -1
v -9.5 1 -2
v -9.5 2 2
v -9.5 2 1
v -9.5 2 -1
v -9.5 2 -2
v -8.5 1 1
v -8.5 1 -1
v -8.5 2 1
v -8.5 2 -1
v -7.5 2 1
v -7.5 2 -1
v -7.5 3 1
v -7.5 3 -1
v -6.5 0 1
v -6.5 0 -1
v -6.5 1 1
v -6.5 1 -1
v -6.5 2 2
v -6.5 2 1
v -6.5 2 -1
v -6.5 2 -2
v -6.5 3 1
v -6.5 3 -1
v -6.5 4 2
v -6.5 4 -2
v -5.5 1 2
v -5.5 1 1
v -5.5 1 -1
v -5.5 1 -2
v -5.5 2 2
v -5.5 2 1
v -5.5 2 -1
v -5.5 2 -2
v -5.5 3 3
v -5.5 3 2
v -5.5 3 -2
v -5.5 3 -3
v -5.5 4 3
v -5.5 4 2
v -5.5 4 1
v -5.5 4 -1
v -5.5 4 -2
v -5.5 4 -3
v -5.5 5 1
v -5.5 5 -1
v -4.5 0 2
v -4.5 0 1
v -4.5 0 -1
v -4.5 0 -2
v -4.5 1 3
v -4.5 1 2
v -4.5 1 1
v -4.5 1 -1
v -4.5 1 -2
v -4.5 1 -3
v -4.5 3 3
v -4.5 3 2
v -4.5 3 -2
v -4.5 3 -3
v -4.5 4 2
v -4.5 4 1
v -4.5 4 -1
v -4.5 4 -2
v -4.5 5 2
v -4.5 5 1
v -4.5 5 -1
v -4.5 5 -2
v -2.5 0 2
v -2.5 0 -2
v -2.5 1 3
v -2.5 1 2
v -2.5 1 -2
v -2.5 1 -3
v -2.5 4 3
v -2.5 4 2
v -2.5 4 -2
v -2.5 4 -3
v -2.5 5 2
v -2.5 5 -2
v -0.5 0 2
v -0.5 0 -2
v -0.5 1 3
v -0.5 1 2
v -0.5 1 -2
v -0.5 1 -3
v -0.5 4 3
v -0.5 4 2
v -0.5 4 -2
v -0.5 4 -3
v -0.5 5 2
v -0.5 5 -2
v 1.5 0 2
v 1.5 0 -2
v 1.5 1 3
v 1.5 1 2
v 1.5 1 -2
v 1.5 1 -3
v 1.5 4 3
v 1.5 4 2
v 1.5 4 -2
v 1.5 4 -3
v 1.5 5 2
v 1.5 5 -2
v 4.5 0 1
v 4.5 0 -1
v 4.5 1 1
v 4.5 1 -1
v 6.5 0 -1
v 6.5 0 -2
v 6.5 1 -1
v 6.5 1 -2
v 6.5 2 -1
v 6.5 2 -2
v 8.5 0 -2
v 8.5 0 -3
v 8.5 1 -2
v 8.5 1 -3
v -8.5 1 2
v -8.5 1 1
v -8.5 1 -1
v -8.5 1 -2
v -8.5 2 2
v -8.5 2 1
v -8.5 2 -1
v -8.5 2 -2
v -3.5 0 2
v -3.5 0 -2
v -3.5 1 3
v -3.5 1 2
v -3.5 1 -2
v -3.5 1 -3
v -3.5 4 3
v -3.5 4 2
v -3.5 4 -2
v -3.5 4 -3
v -3.5 5 2
v -3.5 5 -2
v -1.5 0 2
v -1.5 0 -2
v -1.5 1 3
v -1.5 1 2
v -1.5 1 -2
v -1.5 1 -3
v -1.5 4 3
v -1.5 4 2
v -1.5 4 -2
v -1.5 4 -3
v -1.5 5 2
v -1.5 5 -2
v 0.5 0 2
v 0.5 0 -2
v 0.5 1 3
v 0.5 1 2
v 0.5 1 -2
v 0.5 1 -3
v 0.5 4 3
v 0.5 4 2
v 0.5 4 -2
v 0.5 4 -3
v 0.5 5 2
v 0.5 5 -2
v 2.5 1 3
v 2.5 1 2
v 2.5 1 -2
v 2.5 1 -3
v 2.5 4 3
v 2.5 4 2
v 2.5 4 -2
v 2.5 4 -3
v 2.5 5 2
v 2.5 5 -2
v 3.5 0 2
v 3.5 0 -2
v 3.5 1 2
v 3.5 1 -2
v 3.5 3 2
v 3.5 3 1
v 3.5 3 -1
v 3.5 3 -2
v 3.5 4 2
v 3.5 4 1
v 3.5 4 -1
v 3.5 4 -2
v 4.5 2 2
v 4.5 2 1
v 4.5 2 -1
v 4.5 2 -2
v 4.5 3 2
v 4.5 3 1
v 4.5 3 -1
v 4.5 3 -2
v 4.5 4 1
v 4.5 4 -1
v 5.5 1 2
v 5.5 1 1
v 5.5 1 -1
v 5.5 1 -2
v 5.5 2 2
v 5.5 2 1
v 5.5 2 -1
v 5.5 2 -2
v 6.5 0 1
v 6.5 0 -0
v 6.5 1 1
v 6.5 1 -0
v 6.5 2 1
v 6.5 2 -1
v 6.5 3 1
v 6.5 3 -1
v 7.5 1 1
v 7.5 1 -0
v 7.5 2 1
v 7.5 2 -0
v 8.5 0 -0
v 8.5 0 -1
v 8.5 1 -1
v 8.5 1 -2
v 8.5 2 -0
v 8.5 2 -1
v 8.5 2 -2
v 10.5 0 -1
v 10.5 0 -2
v 10.5 0 -3
v 10.5 1 -1
v 10.5 1 -2
v 10.5 1 -3
v -5.5 3 3
v -5.5 4 3
v -4.5 1 3
v -4.5 3 3
v -3.5 1 3
v -3.5 4 3
v -2.5 1 3
v -2.5 4 3
v -1.5 1 3
v -1.5 4 3
v -0.5 1 3
v -0.5 4 3
v 0.5 1 3
v 0.5 4 3
v 1.5 1 3
v 1.5 4 3
v 2.5 1 3
v 2.5 4 3
v -9.5 1 2
v -9.5 2 2
v -8.5 1 2
v -8.5 2 2
v -6.5 2 2
v -6.5 4 2
v -5.5 1 2
v -5.5 2 2
v -5.5 3 2
v -5.5 4 2
v -4.5 0 2
v -4.5 1 2
v -4.5 3 2
v -4.5 4 2
v -4.5 5 2
v -3.5 0 2
v -3.5 1 2
v -3.5 4 2
v -3.5 5 2
v -2.5 0 2
v -2.5 1 2
v -2.5 4 2
v -2.5 5 2
v -1.5 0 2
v -1.5 1 2
v -1.5 4 2
v -1.5 5 2
v -0.5 0 2
v -0.5 1 2
v -0.5 4 2
v -0.5 5 2
v 0.5 0 2
v 0.5 1 2
v 0.5 4 2
v 0.5 5 2
v 1.5 0 2
v 1.5 1 2
v 1.5 4 2
v 1.5 5 2
v 2.5 1 2
v 2.5 4 2
v 2.5 5 2
v 3.5 0 2
v 3.5 1 2
v 3.5 3 2
v 3.5 4 2
v 4.5 1 2
v 4.5 2 2
v 4.5 3 2
v 5.5 1 2
v 5.5 2 2
v -8.5 1 1
v -8.5 2 1
v -7.5 1 1
v -7.5 2 1
v -7.5 3 1
v -6.5 0 1
v -6.5 1 1
v -6.5 2 1
v -6.5 3 1
v -5.5 1 1
v -5.5 2 1
v -5.5 4 1
v -5.5 5 1
v -4.5 0 1
v -4.5 1 1
v -4.5 4 1
v -4.5 5 1
v 3.5 3 1
v 3.5 4 1
v 4.5 0 1
v 4.5 1 1
v 4.5 2 1
v 4.5 3 1
v 4.5 4 1
v 5.5 0 1
v 5.5 1 1
v 5.5 2 1
v 5.5 3 1
v 6.5 0 1
v 6.5 1 1
v 6.5 2 1
v 6.5 3 1
v 7.5 1 1
v 7.5 2 1
v 6.5 0 -0
v 6.5 1 -0
v 7.5 0 -0
v 7.5 1 -0
v 7.5 2 -0
v 8.5 0 -0
v 8.5 2 -0
v -9.5 1 -1
v -9.5 2 -1
v -8.5 1 -1
v -8.5 2 -1
v 8.5 0 -1
v 8.5 1 -1
v 9.5 0 -1
v 9.5 1 -1
v 10.5 0 -1
v 10.5 1 -1
v -9.5 1 1
v -9.5 2 1
v -8.5 1 1
v -8.5 2 1
v -8.5 1 -1
v -8.5 2 -1
v -7.5 1 -1
v -7.5 2 -1
v -7.5 3 -1
v -6.5 0 -1
v -6.5 1 -1
v -6.5 2 -1
v -6.5 3 -1
v -5.5 1 -1
v -5.5 2 -1
v -5.5 4 -1
v -5.5 5 -1
v -4.5 0 -1
v -4.5 1 -1
v -4.5 4 -1
v -4.5 5 -1
v 3.5 3 -1
v 3.5 4 -1
v 4.5 0 -1
v 4.5 1 -1
v 4.5 2 -1
v 4.5 3 -1
v 4.5 4 -1
v 5.5 0 -1
v 5.5 1 -1
v 5.5 2 -1
v 5.5 3 -1
v 6.5 0 -1
v 6.5 1 -1
v 6.5 2 -1
v 6.5 3 -1
v -9.5 1 -2
v -9.5 2 -2
v -8.5 1 -2
v -8.5 2 -2
v -6.5 2 -2
v -6.5 4 -2
v -5.5 1 -2
v -5.5 2 -2
v -5.5 3 -2
v -5.5 4 -2
v -4.5 0 -2
v -4.5 1 -2
v -4.5 3 -2
v -4.5 4 -2
v -4.5 5 -2
v -3.5 0 -2
v -3.5 1 -2
v -3.5 4 -2
v -3.5 5 -2
v -2.5 0 -2
v -2.5 1 -2
v -2.5 4 -2
v -2.5 5 -2
v -1.5 0 -2
v -1.5 1 -2
v -1.5 4 -2
v -1.5 5 -2
v -0.5 0 -2
v -0.5 1 -2
v -0.5 4 -2
v -0.5 5 -2
v 0.5 0 -2
v 0.5 1 -2
v 0.5 4 -2
v 0.5 5 -2
v 1.5 0 -2
v 1.5 1 -2
v 1.5 4 -2
v 1.5 5 -2
v 2.5 1 -2
v 2.5 4 -2
v 2.5 5 -2
v 3.5 0 -2
v 3.5 1 -2
v 3.5 3 -2
v 3.5 4 -2
v 4.5 1 -2
v 4.5 2 -2
v 4.5 3 -2
v 5.5 1 -2
v 5.5 2 -2
v 6.5 0 -2
v 6.5 1 -2
v 6.5 2 -2
v 7.5 0 -2
v 7.5 1 -2
v 7.5 2 -2
v 8.5 0 -2
v 8.5 1 -2
v 8.5 2 -2
v -5.5 3 -3
v -5.5 4 -3
v -4.5 1 -3
v -4.5 3 -3
v -3.5 1 -3
v -3.5 4 -3
v -2.5 1 -3
v -2.5 4 -3
v -1.5 1 -3
v -1.5 4 -3
v -0.5 1 -3
v -0.5 4 -3
v 0.5 1 -3
v 0.5 4 -3
v 1.5 1 -3
v 1.5 4 -3
v 2.5 1 -3
v 2.5 4 -3
v 8.5 0 -3
v 8.5 1 -3
v 9.5 0 -3
v 9.5 1 -3
v 10.5 0 -3
v 10.5 1 -3
v -4.5 0 2
v -3.5 0 2
v -2.5 0 2
v -1.5 0 2
v -0.5 0 2
v 0.5 0 2
v 1.5 0 2
v 3.5 0 2
v -6.5 0 1
v -4.5 0 1
v 4.5 0 1
v 5.5 0 1
v 6.5 0 1
v 6.5 0 -0
v 7.5 0 -0
v 8.5 0 -0
v -6.5 0 -1
v -4.5 0 -1
v 4.5 0 -1
v 5.5 0 -1
v 6.5 0 -1
v 8.5 0 -1
v 9.5 0 -1
v 10.5 0 -1
v -4.5 0 -2
v -3.5 0 -2
v -2.5 0 -2
v -1.5 0 -2
v -0.5 0 -2
v 0.5 0 -2
v 1.5 0 -2
v 3.5 0 -2
v 6.5 0 -2
v 7.5 0 -2
v 8.5 0 -2
v 9.5 0 -2
v 10.5 0 -2
v 8.5 0 -3
v 9.5 0 -3
v 10.5 0 -3
v -4.5 1 3
v -3.5 1 3
v -2.5 1 3
v -1.5 1 3
v -0.5 1 3
v 0.5 1 3
v 1.5 1 3
v 2.5 1 3
v -9.5 1 2
v -8.5 1 2
v -5.5 1 2
v -4.5 1 2
v -3.5 1 2
v -2.5 1 2
v -1.5 1 2
v -0.5 1 2
v 0.5 1 2
v 1.5 1 2
v 2.5 1 2
v 3.5 1 2
v 4.5 1 2
v 5.5 1 2
v -9.5 1 1
v -8.5 1 1
v -7.5 1 1
v -6.5 1 1
v -5.5 1 1
v -4.5 1 1
v 4.5 1 1
v 5.5 1 1
v 6.5 1 1
v 7.5 1 1
v 6.5 1 -0
v 7.5 1 -0
v -9.5 1 -1
v -8.5 1 -1
v -7.5 1 -1
v -6.5 1 -1
v -5.5 1 -1
v -4.5 1 -1
v 4.5 1 -1
v 5.5 1 -1
v -9.5 1 -2
v -8.5 1 -2
v -5.5 1 -2
v -4.5 1 -2
v -3.5 1 -2
v -2.5 1 -2
v -1.5 1 -2
v -0.5 1 -2
v 0.5 1 -2
v 1.5 1 -2
v 2.5 1 -2
v 3.5 1 -2
v 4.5 1 -2
v 5.5 1 -2
v -4.5 1 -3
v -3.5 1 -3
v -2.5 1 -3
v -1.5 1 -3
v -0.5 1 -3
v 0.5 1 -3
v 1.5 1 -3
v 2.5 1 -3
v -6.5 2 2
v -5.5 2 2
v -6.5 2 1
v -5.5 2 1
v -6.5 2 -1
v -5.5 2 -1
v -6.5 2 -2
v -5.5 2 -2
v -5.5 3 3
v -4.5 3 3
v -5.5 3 2
v -4.5 3 2
v -5.5 3 -2
v -4.5 3 -2
v -5.5 3 -3
v -4.5 3 -3
v 8.5 1 -1
v 9.5 1 -1
v 10.5 1 -1
v 8.5 1 -2
v 9.5 1 -2
v 10.5 1 -2
v 8.5 1 -3
v 9.5 1 -3
v 10.5 1 -3
v -9.5 2 2
v -8.5 2 2
v 4.5 2 2
v 5.5 2 2
v -9.5 2 1
v -8.5 2 1
v -7.5 2 1
v 4.5 2 1
v 5.5 2 1
v 6.5 2 1
v 7.5 2 1
v 7.5 2 -0
v 8.5 2 -0
v -9.5 2 -1
v -8.5 2 -1
v -7.5 2 -1
v 4.5 2 -1
v 5.5 2 -1
v 6.5 2 -1
v 7.5 2 -1
v 8.5 2 -1
v -9.5 2 -2
v -8.5 2 -2
v 4.5 2 -2
v 5.5 2 -2
v 6.5 2 -2
v 7.5 2 -2
v 8.5 2 -2
v 3.5 3 2
v 4.5 3 2
v -7.5 3 1
v -6.5 3 1
v 3.5 3 1
v 4.5 3 1
v 5.5 3 1
v 6.5 3 1
v -7.5 3 -1
v -6.5 3 -1
v 3.5 3 -1
v 4.5 3 -1
v 5.5 3 -1
v 6.5 3 -1
v 3.5 3 -2
v 4.5 3 -2
v -5.5 4 3
v -3.5 4 3
v -2.5 4 3
v -1.5 4 3
v -0.5 4 3
v 0.5 4 3
v 1.5 4 3
v 2.5 4 3
v -6.5 4 2
v -5.5 4 2
v -4.5 4 2
v -3.5 4 2
v -2.5 4 2
v -1.5 4 2
v -0.5 4 2
v 0.5 4 2
v 1.5 4 2
v 2.5 4 2
v 3.5 4 2
v -5.5 4 1
v -4.5 4 1
v 3.5 4 1
v 4.5 4 1
v -5.5 4 -1
v -4.5 4 -1
v 3.5 4 -1
v 4.5 4 -1
v -6.5 4 -2
v -5.5 4 -2
v -4.5 4 -2
v -3.5 4 -2
v -2.5 4 -2
v -1.5 4 -2
v -0.5 4 -2
v 0.5 4 -2
v 1.5 4 -2
v 2.5 4 -2
v 3.5 4 -2
v -5.5 4 -3
v -3.5 4 -3
v -2.5 4 -3
v -1.5 4 -3
v -0.5 4 -3
v 0.5 4 -3
v 1.5 4 -3
v 2.5 4 -3
v -4.5 5 2
v -3.5 5 2
v -2.5 5 2
v -1.5 5 2
v -0.5 5 2
v 0.5 5 2
v 1.5 5 2
v 2.5 5 2
v -5.5 5 1
v -4.5 5 1
v -5.5 5 -1
v -4.5 5 -1
v -4.5 5 -2
v -3.5 5 -2
v -2.5 5 -2
v -1.5 5 -2
v -0.5 5 -2
v 0.5 5 -2
v 1.5 5 -2
v 2.5 5 -2

# faces
f 5/6/1 2/6/1 1/6/1
f 6/6/1 2/6/1 5/6/1
f 7/6/1 4/6/1 3/6/1
f 8/6/1 4/6/1 7/6/1
f 11/5/1 10/5/1 9/5/1
f 12/5/1 10/5/1 11/5/1
f 15/2/1 14/2/1 13/2/1
f 16/2/1 14/2/1 15/2/1
f 19/2/1 18/2/1 17/2/1
f 20/2/1 18/2/1 19/2/1
f 25/2/1 22/2/1 21/2/1
f 26/2/1 24/2/1 23/2/1
f 27/2/1 25/2/1 21/2/1
f 27/2/1 26/2/1 25/2/1
f 28/2/1 24/2/1 26/2/1
f 28/2/1 26/2/1 27/2/1
f 33/2/1 30/2/1 29/2/1
f 34/2/1 30/2/1 33/2/1
f 35/2/1 32/2/1 31/2/1
f 36/2/1 32/2/1 35/2/1
f 41/2/1 38/2/1 37/2/1
f 42/2/1 38/2/1 41/2/1
f 45/2/1 40/2/1 39/2/1
f 46/2/1 40/2/1 45/2/1
f 47/2/1 44/2/1 43/2/1
f 48/2/1 44/2/1 47/2/1
f 54/2/1 50/2/1 49/2/1
f 55/2/1 50/2/1 54/2/1
f 56/2/1 52/2/1 51/2/1
f 57/2/1 52/2/1 56/2/1
f 59/2/1 54/2/1 53/2/1
f 60/2/1 54/2/1 59/2/1
f 61/2/1 58/2/1 57/2/1
f 62/2/1 58/2/1 61/2/1
f 67/2/1 64/2/1 63/2/1
f 68/2/1 64/2/1 67/2/1
f 69/2/1 66/2/1 65/2/1
f 70/2/1 66/2/1 69/2/1
f 74/2/1 72/2/1 71/2/1
f 75/2/1 72/2/1 74/2/1
f 77/2/1 74/2/1 73/2/1
f 78/2/1 74/2/1 77/2/1
f 79/2/1 76/2/1 75/2/1
f 80/2/1 76/2/1 79/2/1
f 81/2/1 79/2/1 78/2/1
f 82/2/1 79/2/1 81/2/1
f 86/2/1 84/2/1 83/2/1
f 87/2/1 84/2/1 86/2/1
f 89/2/1 86/2/1 85/2/1
f 90/2/1 86/2/1 89/2/1
f 91/2/1 88/2/1 87/2/1
f 92/2/1 88/2/1 91/2/1
f 93/2/1 91/2/1 90/2/1
f 94/2/1 91/2/1 93/2/1
f 98/2/1 96/2/1 95/2/1
f 99/2/1 96/2/1 98/2/1
f 101/2/1 98/2/1 97/2/1
f 102/2/1 98/2/1 101/2/1
f 103/2/1 100/2/1 99/2/1
f 104/2/1 100/2/1 103/2/1
f 105/2/1 103/2/1 102/2/1
f 106/2/1 103/2/1 105/2/1
f 109/2/1 108/2/1 107/2/1
f 110/2/1 108/2/1 109/2/1
f 113/2/1 112/2/1 111/2/1
f 114/2/1 112/2/1 113/2/1
f 115/1/1 114/1/1 113/1/1
f 116/1/1 114/1/1 115/1/1
f 119/1/1 118/1/1 117/1/1
f 120/1/1 118/1/1 119/1/1
f 121/6/2 122/6/2 125/6/2
f 125/6/2 122/6/2 126/6/2
f 123/6/2 124/6/2 127/6/2
f 127/6/2 124/6/2 128/6/2
f 129/2/2 130/2/2 132/2/2
f 132/2/2 130/2/2 133/2/2
f 131/2/2 132/2/2 135/2/2
f 135/2/2 132/2/2 136/2/2
f 133/2/2 134/2/2 137/2/2
f 137/2/2 134/2/2 138/2/2
f 136/2/2 137/2/2 139/2/2
f 139/2/2 137/2/2 140/2/2
f 141/2/2 142/2/2 144/2/2
f 144/2/2 142/2/2 145/2/2
f 143/2/2 144/2/2 147/2/2
f 147/2/2 144/2/2 148/2/2
f 145/2/2 146/2/2 149/2/2
f 149/2/2 146/2/2 150/2/2
f 148/2/2 149/2/2 151/2/2
f 151/2/2 149/2/2 152/2/2
f 153/2/2 154/2/2 156/2/2
f 156/2/2 154/2/2 157/2/2
f 155/2/2 156/2/2 159/2/2
f 159/2/2 156/2/2 160/2/2
f 157/2/2 158/2/2 161/2/2
f 161/2/2 158/2/2 162/2/2
f 160/2/2 161/2/2 163/2/2
f 163/2/2 161/2/2 164/2/2
f 165/2/2 166/2/2 169/2/2
f 169/2/2 166/2/2 170/2/2
f 167/2/2 168/2/2 171/2/2
f 171/2/2 168/2/2 172/2/2
f 170/2/2 171/2/2 173/2/2
f 173/2/2 171/2/2 174/2/2
f 175/2/2 176/2/2 177/2/2
f 177/2/2 176/2/2 178/2/2
f 179/2/2 180/2/2 183/2/2
f 183/2/2 180/2/2 184/2/2
f 181/2/2 182/2/2 185/2/2
f 185/2/2 182/2/2 186/2/2
f 187/1/2 188/1/2 191/1/2
f 191/1/2 188/1/2 192/1/2
f 189/1/2 190/1/2 193/1/2
f 193/1/2 190/1/2 194/1/2
f 192/1/2 193/1/2 195/1/2
f 195/1/2 193/1/2 196/1/2
f 197/2/2 198/2/2 201/2/2
f 201/2/2 198/2/2 202/2/2
f 199/2/2 200/2/2 203/2/2
f 203/2/2 200/2/2 204/2/2
f 205/1/2 206/1/2 207/1/2
f 207/1/2 206/1/2 208/1/2
f 209/1/2 210/1/2 211/1/2
f 211/1/2 210/1/2 212/1/2
f 213/2/2 214/2/2 215/2/2
f 215/2/2 214/2/2 216/2/2
f 217/1/2 218/1/2 219/1/2
f 217/1/2 219/1/2 221/1/2
f 219/2/2 220/2/2 222/2/2
f 221/1/2 219/1/2 222/1/2
f 222/2/2 220/2/2 223/2/2
f 224/1/2 225/1/2 227/1/2
f 225/2/2 226/2/2 228/2/2
f 227/1/2 225/1/2 228/1/2
f 228/2/2 226/2/2 229/2/2
f 233/2/3 231/2/3 230/2/3
f 234/2/3 233/2/3 232/2/3
f 235/2/3 231/2/3 233/2/3
f 235/2/3 233/2/3 234/2/3
f 238/2/3 237/2/3 236/2/3
f 239/2/3 237/2/3 238/2/3
f 242/2/3 241/2/3 240/2/3
f 243/2/3 241/2/3 242/2/3
f 246/2/3 245/2/3 244/2/3
f 247/2/3 245/2/3 246/2/3
f 250/6/3 249/6/3 248/6/3
f 251/6/3 249/6/3 250/6/3
f 255/2/3 253/2/3 252/2/3
f 256/2/3 253/2/3 255/2/3
f 257/2/3 253/2/3 256/2/3
f 259/2/3 255/2/3 254/2/3
f 259/2/3 256/2/3 255/2/3
f 260/2/3 256/2/3 259/2/3
f 263/2/3 259/2/3 258/2/3
f 264/2/3 259/2/3 263/2/3
f 265/2/3 262/2/3 261/2/3
f 266/2/3 262/2/3 265/2/3
f 268/1/3 265/1/3 264/1/3
f 269/1/3 265/1/3 268/1/3
f 271/2/3 268/2/3 267/2/3
f 272/2/3 268/2/3 271/2/3
f 273/2/3 270/2/3 269/2/3
f 274/2/3 270/2/3 273/2/3
f 276/1/3 273/1/3 272/1/3
f 277/1/3 273/1/3 276/1/3
f 279/2/3 276/2/3 275/2/3
f 280/2/3 276/2/3 279/2/3
f 281/2/3 278/2/3 277/2/3
f 282/2/3 278/2/3 281/2/3
f 284/1/3 281/1/3 280/1/3
f 285/1/3 281/1/3 284/1/3
f 287/2/3 284/2/3 283/2/3
f 288/2/3 286/2/3 285/2/3
f 289/2/3 286/2/3 288/2/3
f 290/2/3 287/2/3 283/2/3
f 290/2/3 288/2/3 287/2/3
f 291/2/3 288/2/3 290/2/3
f 292/2/3 288/2/3 291/2/3
f 293/2/3 288/2/3 292/2/3
f 294/1/3 292/1/3 291/1/3
f 295/1/3 292/1/3 294/1/3
f 296/1/3 292/1/3 295/1/3
f 297/2/3 295/2/3 294/2/3
f 298/2/3 295/2/3 297/2/3
f 301/5/3 300/5/3 299/5/3
f 302/5/3 300/5/3 301/5/3
f 305/2/3 302/2/3 301/2/3
f 305/2/3 303/2/3 302/2/3
f 306/2/3 303/2/3 305/2/3
f 307/2/3 303/2/3 306/2/3
f 308/2/3 305/2/3 304/2/3
f 308/2/3 306/2/3 305/2/3
f 309/2/3 306/2/3 308/2/3
f 312/2/3 308/2/3 304/2/3
f 313/2/3 308/2/3 312/2/3
f 314/2/3 311/2/3 310/2/3
f 315/2/3 311/2/3 314/2/3
f 321/1/3 317/1/3 316/1/3
f 322/1/3 317/1/3 321/1/3
f 323/2/3 319/2/3 318/2/3
f 324/2/3 319/2/3 323/2/3
f 325/2/3 321/2/3 320/2/3
f 326/2/3 321/2/3 325/2/3
f 327/1/3 324/1/3 323/1/3
f 327/1/3 325/1/3 324/1/3
f 327/1/3 326/1/3 325/1/3
f 328/1/3 326/1/3 327/1/3
f 329/1/3 326/1/3 328/1/3
f 330/1/3 326/1/3 329/1/3
f 331/2/3 329/2/3 328/2/3
f 332/2/3 329/2/3 331/2/3
f 335/2/3 334/2/3 333/2/3
f 336/2/3 334/2/3 335/2/3
f 338/1/3 336/1/3 335/1/3
f 338/1/3 337/1/3 336/1/3
f 339/1/3 337/1/3 338/1/3
f 342/6/3 341/6/3 340/6/3
f 343/6/3 341/6/3 342/6/3
f 346/2/3 345/2/3 344/2/3
f 347/2/3 345/2/3 346/2/3
f 348/1/3 347/1/3 346/1/3
f 349/1/3 347/1/3 348/1/3
f 350/6/4 351/6/4 352/6/4
f 352/6/4 351/6/4 353/6/4
f 354/5/4 355/5/4 356/5/4
f 356/5/4 355/5/4 357/5/4
f 356/2/4 357/2/4 360/2/4
f 357/2/4 358/2/4 360/2/4
f 360/2/4 358/2/4 361/2/4
f 361/2/4 358/2/4 362/2/4
f 359/2/4 360/2/4 363/2/4
f 360/2/4 361/2/4 363/2/4
f 363/2/4 361/2/4 364/2/4
f 359/2/4 363/2/4 367/2/4
f 367/2/4 363/2/4 368/2/4
f 365/2/4 366/2/4 369/2/4
f 369/2/4 366/2/4 370/2/4
f 371/1/4 372/1/4 376/1/4
f 376/1/4 372/1/4 377/1/4
f 373/2/4 374/2/4 378/2/4
f 378/2/4 374/2/4 379/2/4
f 375/2/4 376/2/4 380/2/4
f 380/2/4 376/2/4 381/2/4
f 378/1/4 379/1/4 382/1/4
f 379/1/4 380/1/4 382/1/4
f 380/1/4 381/1/4 382/1/4
f 382/1/4 381/1/4 383/1/4
f 383/1/4 381/1/4 384/1/4
f 384/1/4 381/1/4 385/1/4
f 386/6/4 387/6/4 388/6/4
f 388/6/4 387/6/4 389/6/4
f 390/2/4 391/2/4 393/2/4
f 393/2/4 391/2/4 394/2/4
f 394/2/4 391/2/4 395/2/4
f 392/2/4 393/2/4 397/2/4
f 393/2/4 394/2/4 397/2/4
f 397/2/4 394/2/4 398/2/4
f 396/2/4 397/2/4 401/2/4
f 401/2/4 397/2/4 402/2/4
f 399/2/4 400/2/4 403/2/4
f 403/2/4 400/2/4 404/2/4
f 402/1/4 403/1/4 406/1/4
f 406/1/4 403/1/4 407/1/4
f 405/2/4 406/2/4 409/2/4
f 409/2/4 406/2/4 410/2/4
f 407/2/4 408/2/4 411/2/4
f 411/2/4 408/2/4 412/2/4
f 410/1/4 411/1/4 414/1/4
f 414/1/4 411/1/4 415/1/4
f 413/2/4 414/2/4 417/2/4
f 417/2/4 414/2/4 418/2/4
f 415/2/4 416/2/4 419/2/4
f 419/2/4 416/2/4 420/2/4
f 418/1/4 419/1/4 422/1/4
f 422/1/4 419/1/4 423/1/4
f 421/2/4 422/2/4 425/2/4
f 423/2/4 424/2/4 426/2/4
f 426/2/4 424/2/4 427/2/4
f 421/2/4 425/2/4 428/2/4
f 425/2/4 426/2/4 428/2/4
f 428/2/4 426/2/4 429/2/4
f 429/2/4 426/2/4 430/2/4
f 430/2/4 426/2/4 431/2/4
f 429/1/4 430/1/4 432/1/4
f 432/1/4 430/1/4 433/1/4
f 433/1/4 430/1/4 434/1/4
f 432/2/4 433/2/4 435/2/4
f 435/2/4 433/2/4 436/2/4
f 437/2/4 438/2/4 440/2/4
f 438/1/4 439/1/4 441/1/4
f 440/2/4 438/2/4 441/2/4
f 441/1/4 439/1/4 442/1/4
f 440/1/4 441/1/4 443/1/4
f 441/2/4 442/2/4 444/2/4
f 443/1/4 441/1/4 444/1/4
f 444/2/4 442/2/4 445/2/4
f 446/2/4 447/2/4 449/2/4
f 448/2/4 449/2/4 450/2/4
f 449/2/4 447/2/4 451/2/4
f 450/2/4 449/2/4 451/2/4
f 452/2/4 453/2/4 454/2/4
f 454/2/4 453/2/4 455/2/4
f 456/2/4 457/2/4 458/2/4
f 458/2/4 457/2/4 459/2/4
f 460/2/4 461/2/4 462/2/4
f 462/2/4 461/2/4 463/2/4
f 464/1/4 465/1/4 466/1/4
f 466/1/4 465/1/4 467/1/4
f 466/2/4 467/2/4 468/2/4
f 468/2/4 467/2/4 469/2/4
f 479/2/5 471/2/5 470/2/5
f 483/1/5 482/1/5 481/1/5
f 486/2/5 479/2/5 478/2/5
f 487/2/5 471/2/5 479/2/5
f 487/2/5 479/2/5 486/2/5
f 488/2/5 481/2/5 480/2/5
f 489/1/5 483/1/5 481/1/5
f 489/2/5 481/2/5 488/2/5
f 490/2/5 484/2/5 483/2/5
f 490/1/5 483/1/5 489/1/5
f 491/1/5 485/1/5 484/1/5
f 494/2/5 471/2/5 487/2/5
f 495/2/5 471/2/5 494/2/5
f 496/2/5 473/2/5 472/2/5
f 497/2/5 473/2/5 496/2/5
f 498/2/5 475/2/5 474/2/5
f 499/2/5 475/2/5 498/2/5
f 500/2/5 477/2/5 476/2/5
f 501/2/5 477/2/5 500/2/5
f 502/2/5 484/2/5 490/2/5
f 503/1/5 491/1/5 484/1/5
f 503/2/5 484/2/5 502/2/5
f 504/2/5 492/2/5 491/2/5
f 504/1/5 491/1/5 503/1/5
f 505/1/5 493/1/5 492/1/5
f 505/2/5 492/2/5 504/2/5
f 506/1/5 493/1/5 505/1/5
f 507/1/5 505/1/5 504/1/5
f 508/2/5 506/2/5 505/2/5
f 508/1/5 505/1/5 507/1/5
f 509/2/5 506/2/5 508/2/5
f 521/2/5 511/2/5 510/2/5
f 522/2/5 511/2/5 521/2/5
f 523/2/5 513/2/5 512/2/5
f 524/2/5 513/2/5 523/2/5
f 525/2/5 515/2/5 514/2/5
f 526/2/5 515/2/5 525/2/5
f 527/2/5 517/2/5 516/2/5
f 528/2/5 517/2/5 527/2/5
f 532/6/5 519/6/5 518/6/5
f 533/6/5 519/6/5 532/6/5
f 536/2/5 521/2/5 520/2/5
f 537/2/5 521/2/5 536/2/5
f 538/2/5 531/2/5 530/2/5
f 538/1/5 530/1/5 529/1/5
f 539/2/5 531/2/5 538/2/5
f 542/2/5 541/2/5 540/2/5
f 543/2/5 541/2/5 542/2/5
f 545/5/5 534/5/5 533/5/5
f 546/2/5 535/2/5 534/2/5
f 546/5/5 534/5/5 545/5/5
f 547/2/5 535/2/5 546/2/5
f 550/1/5 538/1/5 529/1/5
f 552/6/5 545/6/5 544/6/5
f 553/6/5 545/6/5 552/6/5
f 554/2/5 549/2/5 548/2/5
f 555/2/5 549/2/5 554/2/5
f 556/1/5 523/1/5 522/1/5
f 557/1/5 523/1/5 556/1/5
f 558/1/5 525/1/5 524/1/5
f 559/1/5 525/1/5 558/1/5
f 560/1/5 527/1/5 526/1/5
f 561/1/5 527/1/5 560/1/5
f 563/1/5 550/1/5 529/1/5
f 564/2/5 551/2/5 550/2/5
f 564/1/5 550/1/5 563/1/5
f 565/2/5 551/2/5 564/2/5
f 566/2/5 556/2/5 555/2/5
f 567/2/5 556/2/5 566/2/5
f 568/2/5 558/2/5 557/2/5
f 569/2/5 558/2/5 568/2/5
f 570/2/5 560/2/5 559/2/5
f 571/2/5 560/2/5 570/2/5
f 572/2/5 562/2/5 561/2/5
f 573/2/5 562/2/5 572/2/5
f 576/2/5 575/2/5 574/2/5
f 577/2/5 575/2/5 576/2/5
f 580/2/5 579/2/5 578/2/5
f 581/2/5 579/2/5 580/2/5
f 584/2/5 583/2/5 582/2/5
f 585/2/5 583/2/5 584/2/5
f 588/2/5 587/2/5 586/2/5
f 589/2/5 587/2/5 588/2/5
f 590/2/6 591/2/6 593/2/6
f 591/1/6 592/1/6 594/1/6
f 593/2/6 591/2/6 594/2/6
f 594/1/6 592/1/6 595/1/6
f 593/1/6 594/1/6 596/1/6
f 594/2/6 595/2/6 597/2/6
f 596/1/6 594/1/6 597/1/6
f 597/2/6 595/2/6 598/2/6
f 599/6/6 600/6/6 603/6/6
f 603/6/6 600/6/6 604/6/6
f 601/2/6 602/2/6 606/2/6
f 606/2/6 602/2/6 607/2/6
f 608/2/6 609/2/6 610/2/6
f 604/5/6 605/5/6 613/5/6
f 613/5/6 605/5/6 614/5/6
f 608/2/6 610/2/6 617/2/6
f 610/1/6 611/1/6 618/1/6
f 617/2/6 610/2/6 618/2/6
f 618/1/6 611/1/6 619/1/6
f 612/6/6 613/6/6 620/6/6
f 620/6/6 613/6/6 621/6/6
f 615/2/6 616/2/6 622/2/6
f 622/2/6 616/2/6 623/2/6
f 617/1/6 618/1/6 624/1/6
f 618/2/6 619/2/6 625/2/6
f 624/1/6 618/1/6 625/1/6
f 625/2/6 619/2/6 626/2/6
f 627/1/6 628/1/6 631/1/6
f 631/1/6 628/1/6 632/1/6
f 629/2/6 630/2/6 635/2/6
f 635/2/6 630/2/6 636/2/6
f 632/2/6 633/2/6 638/2/6
f 633/1/6 634/1/6 639/1/6
f 638/2/6 633/2/6 639/2/6
f 639/1/6 634/1/6 640/1/6
f 637/1/6 638/1/6 641/1/6
f 641/1/6 638/1/6 642/1/6
f 643/2/6 644/2/6 652/2/6
f 652/2/6 644/2/6 653/2/6
f 653/2/6 644/2/6 654/2/6
f 645/2/6 646/2/6 655/2/6
f 655/2/6 646/2/6 656/2/6
f 647/2/6 648/2/6 657/2/6
f 657/2/6 648/2/6 658/2/6
f 649/2/6 650/2/6 659/2/6
f 659/2/6 650/2/6 660/2/6
f 651/2/6 652/2/6 662/2/6
f 652/2/6 653/2/6 662/2/6
f 662/2/6 653/2/6 663/2/6
f 660/2/6 661/2/6 664/2/6
f 651/2/6 662/2/6 666/2/6
f 664/1/6 665/1/6 668/1/6
f 660/2/6 664/2/6 668/2/6
f 668/1/6 665/1/6 669/1/6
f 666/2/6 667/2/6 670/2/6
f 651/2/6 666/2/6 670/2/6
f 670/2/6 667/2/6 671/2/6
f 671/2/6 667/2/6 672/2/6
f 654/1/6 655/1/6 673/1/6
f 673/1/6 655/1/6 674/1/6
f 656/1/6 657/1/6 675/1/6
f 675/1/6 657/1/6 676/1/6
f 658/1/6 659/1/6 677/1/6
f 677/1/6 659/1/6 678/1/6
f 660/2/6 668/2/6 679/2/6
f 679/2/6 668/2/6 680/2/6
f 671/2/6 672/2/6 681/2/6
f 672/2/6 673/2/6 681/2/6
f 681/2/6 673/2/6 682/2/6
f 674/2/6 675/2/6 683/2/6
f 683/2/6 675/2/6 684/2/6
f 676/2/6 677/2/6 685/2/6
f 685/2/6 677/2/6 686/2/6
f 678/2/6 679/2/6 687/2/6
f 687/2/6 679/2/6 688/2/6
f 689/2/6 690/2/6 698/2/6
f 697/2/6 698/2/6 699/2/6
f 698/2/6 690/2/6 700/2/6
f 699/2/6 698/2/6 700/2/6
f 700/2/6 690/2/6 701/2/6
f 701/2/6 690/2/6 702/2/6
f 691/2/6 692/2/6 703/2/6
f 703/2/6 692/2/6 704/2/6
f 693/2/6 694/2/6 705/2/6
f 705/2/6 694/2/6 706/2/6
f 695/2/6 696/2/6 707/2/6
f 707/2/6 696/2/6 708/2/6
