# MagicaVoxel @ Ephtracy

# material
mtllib feces.mtl
usemtl palette

# normals
vn -1 0 0
vn 1 0 0
vn 0 0 1
vn 0 0 -1
vn 0 -1 0
vn 0 1 0

# texcoords
vt 0.306641 0.5
vt 0.384766 0.5
vt 0.388672 0.5
vt 0.392578 0.5

# verts
v -3 0 2
v -3 0 -2
v -3 1 2
v -3 1 -2
v -2 0 3
v -2 0 2
v -2 0 -2
v -2 0 -3
v -2 1 3
v -2 1 2
v -2 1 -1
v -2 1 -2
v -2 1 -3
v -2 2 2
v -2 2 -1
v -1 1 -1
v -1 1 -2
v -1 2 1
v -1 2 -1
v -1 2 -2
v -1 3 1
v -1 3 -1
v 1 0 -2
v 1 0 -3
v 1 1 2
v 1 1 1
v 1 1 -1
v 1 1 -2
v 1 1 -3
v 1 2 2
v 1 2 1
v 1 2 -1
v 1 2 -2
v 1 3 1
v 1 3 -1
v 2 0 3
v 2 0 2
v 2 0 -1
v 2 0 -2
v 2 1 3
v 2 1 2
v 2 1 1
v 2 1 -1
v 2 1 -2
v 2 2 1
v 2 2 -1
v 3 0 2
v 3 0 -1
v 3 1 2
v 3 1 -1
v -2 0 3
v -2 1 3
v 2 0 3
v 2 1 3
v -3 0 2
v -3 1 2
v -2 0 2
v -2 1 2
v -2 2 2
v 1 1 2
v 1 2 2
v 2 0 2
v 2 1 2
v 3 0 2
v 3 1 2
v -1 2 1
v -1 3 1
v 1 1 1
v 1 2 1
v 1 3 1
v 2 1 1
v 2 2 1
v -2 1 -1
v -2 2 -1
v -1 1 -1
v -1 2 -1
v -1 3 -1
v 1 1 -1
v 1 2 -1
v 1 3 -1
v 2 0 -1
v 2 1 -1
v 2 2 -1
v 3 0 -1
v 3 1 -1
v -3 0 -2
v -3 1 -2
v -2 0 -2
v -2 1 -2
v -1 1 -2
v -1 2 -2
v 1 0 -2
v 1 1 -2
v 1 2 -2
v 2 0 -2
v 2 1 -2
v -2 0 -3
v -2 1 -3
v 1 0 -3
v 1 1 -3
v -2 0 3
v 2 0 3
v -3 0 2
v -2 0 2
v 2 0 2
v 3 0 2
v 2 0 -1
v 3 0 -1
v -3 0 -2
v -2 0 -2
v 1 0 -2
v 2 0 -2
v -2 0 -3
v 1 0 -3
v -2 1 3
v 2 1 3
v -3 1 2
v -2 1 2
v 1 1 2
v 2 1 2
v 3 1 2
v 1 1 1
v 2 1 1
v -2 1 -1
v -1 1 -1
v 1 1 -1
v 2 1 -1
v 3 1 -1
v -3 1 -2
v -2 1 -2
v -1 1 -2
v 1 1 -2
v 2 1 -2
v -2 1 -3
v 1 1 -3
v -2 2 2
v 1 2 2
v -1 2 1
v 1 2 1
v 2 2 1
v -2 2 -1
v -1 2 -1
v 1 2 -1
v 2 2 -1
v -1 2 -2
v 1 2 -2
v -1 3 1
v 1 3 1
v -1 3 -1
v 1 3 -1

# faces
f 3/4/1 2/4/1 1/4/1
f 4/4/1 2/4/1 3/4/1
f 9/4/1 6/4/1 5/4/1
f 10/4/1 6/4/1 9/4/1
f 12/4/1 8/4/1 7/4/1
f 13/4/1 8/4/1 12/4/1
f 14/3/1 11/3/1 10/3/1
f 15/3/1 11/3/1 14/3/1
f 19/3/1 17/3/1 16/3/1
f 20/3/1 17/3/1 19/3/1
f 21/2/1 19/2/1 18/2/1
f 22/2/1 19/2/1 21/2/1
f 23/4/2 24/4/2 28/4/2
f 28/4/2 24/4/2 29/4/2
f 25/3/2 26/3/2 30/3/2
f 30/3/2 26/3/2 31/3/2
f 27/3/2 28/3/2 32/3/2
f 32/3/2 28/3/2 33/3/2
f 31/2/2 32/2/2 34/2/2
f 34/2/2 32/2/2 35/2/2
f 36/4/2 37/4/2 40/4/2
f 40/4/2 37/4/2 41/4/2
f 38/4/2 39/4/2 43/4/2
f 43/4/2 39/4/2 44/4/2
f 42/3/2 43/3/2 45/3/2
f 45/3/2 43/3/2 46/3/2
f 47/4/2 48/4/2 49/4/2
f 49/4/2 48/4/2 50/4/2
f 53/4/3 52/4/3 51/4/3
f 54/4/3 52/4/3 53/4/3
f 57/4/3 56/4/3 55/4/3
f 58/4/3 56/4/3 57/4/3
f 60/3/3 59/3/3 58/3/3
f 61/3/3 59/3/3 60/3/3
f 64/4/3 63/4/3 62/4/3
f 65/4/3 63/4/3 64/4/3
f 69/2/3 67/2/3 66/2/3
f 70/2/3 67/2/3 69/2/3
f 71/3/3 69/3/3 68/3/3
f 72/3/3 69/3/3 71/3/3
f 73/3/4 74/3/4 75/3/4
f 75/3/4 74/3/4 76/3/4
f 76/2/4 77/2/4 79/2/4
f 79/2/4 77/2/4 80/2/4
f 78/3/4 79/3/4 82/3/4
f 82/3/4 79/3/4 83/3/4
f 81/4/4 82/4/4 84/4/4
f 84/4/4 82/4/4 85/4/4
f 86/4/4 87/4/4 88/4/4
f 88/4/4 87/4/4 89/4/4
f 90/3/4 91/3/4 93/3/4
f 93/3/4 91/3/4 94/3/4
f 92/4/4 93/4/4 95/4/4
f 95/4/4 93/4/4 96/4/4
f 97/4/4 98/4/4 99/4/4
f 99/4/4 98/4/4 100/4/4
f 104/4/5 102/4/5 101/4/5
f 105/4/5 102/4/5 104/4/5
f 107/4/5 104/4/5 103/4/5
f 107/4/5 106/4/5 105/4/5
f 107/4/5 105/4/5 104/4/5
f 108/4/5 106/4/5 107/4/5
f 109/4/5 107/4/5 103/4/5
f 110/4/5 107/4/5 109/4/5
f 111/4/5 107/4/5 110/4/5
f 112/4/5 107/4/5 111/4/5
f 113/4/5 111/4/5 110/4/5
f 114/4/5 111/4/5 113/4/5
f 115/4/6 116/4/6 118/4/6
f 118/4/6 116/4/6 119/4/6
f 119/4/6 116/4/6 120/4/6
f 120/4/6 121/4/6 122/4/6
f 119/4/6 120/4/6 122/4/6
f 122/4/6 121/4/6 123/4/6
f 117/4/6 118/4/6 124/4/6
f 123/4/6 121/4/6 127/4/6
f 127/4/6 121/4/6 128/4/6
f 124/4/6 125/4/6 129/4/6
f 117/4/6 124/4/6 129/4/6
f 129/4/6 125/4/6 130/4/6
f 130/4/6 125/4/6 131/4/6
f 126/4/6 127/4/6 132/4/6
f 132/4/6 127/4/6 133/4/6
f 130/4/6 131/4/6 134/4/6
f 131/4/6 132/4/6 134/4/6
f 134/4/6 132/4/6 135/4/6
f 136/3/6 137/3/6 138/3/6
f 138/3/6 137/3/6 139/3/6
f 136/3/6 138/3/6 141/3/6
f 141/3/6 138/3/6 142/3/6
f 139/3/6 140/3/6 143/3/6
f 143/3/6 140/3/6 144/3/6
f 142/3/6 143/3/6 145/3/6
f 145/3/6 143/3/6 146/3/6
f 147/2/6 148/2/6 149/2/6
f 149/2/6 148/2/6 150/2/6
