# MagicaVoxel @ Ephtracy

# material
mtllib larva_move-01.mtl
usemtl palette

# normals
vn -1 0 0
vn 1 0 0
vn 0 0 1
vn 0 0 -1
vn 0 -1 0
vn 0 1 0

# texcoords
vt 0.193359 0.5
vt 0.197266 0.5
vt 0.259766 0.5
vt 0.306641 0.5
vt 0.400391 0.5
vt 0.958984 0.5

# verts
v -9.5 1 2
v -9.5 1 1
v -9.5 1 -1
v -9.5 1 -2
v -9.5 2 2
v -9.5 2 1
v -9.5 2 -1
v -9.5 2 -2
v -8.5 1 1
v -8.5 1 -1
v -8.5 2 1
v -8.5 2 -1
v -7.5 2 1
v -7.5 2 -1
v -7.5 3 1
v -7.5 3 -1
v -6.5 0 1
v -6.5 0 -1
v -6.5 1 1
v -6.5 1 -1
v -6.5 2 2
v -6.5 2 1
v -6.5 2 -1
v -6.5 2 -2
v -6.5 3 1
v -6.5 3 -1
v -6.5 4 2
v -6.5 4 -2
v -5.5 1 2
v -5.5 1 1
v -5.5 1 -1
v -5.5 1 -2
v -5.5 2 2
v -5.5 2 1
v -5.5 2 -1
v -5.5 2 -2
v -5.5 3 3
v -5.5 3 2
v -5.5 3 -2
v -5.5 3 -3
v -5.5 4 3
v -5.5 4 2
v -5.5 4 1
v -5.5 4 -1
v -5.5 4 -2
v -5.5 4 -3
v -5.5 5 1
v -5.5 5 -1
v -4.5 0 2
v -4.5 0 1
v -4.5 0 -1
v -4.5 0 -2
v -4.5 1 3
v -4.5 1 2
v -4.5 1 1
v -4.5 1 -1
v -4.5 1 -2
v -4.5 1 -3
v -4.5 3 3
v -4.5 3 2
v -4.5 3 -2
v -4.5 3 -3
v -4.5 4 2
v -4.5 4 1
v -4.5 4 -1
v -4.5 4 -2
v -4.5 5 2
v -4.5 5 1
v -4.5 5 -1
v -4.5 5 -2
v -3.5 5 1
v -3.5 5 -1
v -3.5 6 1
v -3.5 6 -1
v -2.5 3 3
v -2.5 3 2
v -2.5 3 -2
v -2.5 3 -3
v -2.5 5 2
v -2.5 5 1
v -2.5 5 -1
v -2.5 5 -2
v -2.5 6 3
v -2.5 6 2
v -2.5 6 1
v -2.5 6 -1
v -2.5 6 -2
v -2.5 6 -3
v -2.5 7 2
v -2.5 7 -2
v -0.5 2 3
v -0.5 2 -3
v -0.5 3 2
v -0.5 3 -2
v -0.5 6 3
v -0.5 6 2
v -0.5 6 -2
v -0.5 6 -3
v -0.5 7 2
v -0.5 7 -2
v 0.5 1 2
v 0.5 1 -2
v 0.5 2 2
v 0.5 2 -2
v 1.5 0 1
v 1.5 0 -1
v 1.5 1 1
v 1.5 1 -1
v -8.5 1 2
v -8.5 1 1
v -8.5 1 -1
v -8.5 1 -2
v -8.5 2 2
v -8.5 2 1
v -8.5 2 -1
v -8.5 2 -2
v -3.5 0 2
v -3.5 0 -2
v -3.5 1 3
v -3.5 1 2
v -3.5 1 1
v -3.5 1 -1
v -3.5 1 -2
v -3.5 1 -3
v -3.5 2 2
v -3.5 2 1
v -3.5 2 -1
v -3.5 2 -2
v -3.5 4 3
v -3.5 4 2
v -3.5 4 -2
v -3.5 4 -3
v -2.5 1 1
v -2.5 1 -1
v -2.5 2 1
v -2.5 2 -1
v -1.5 2 2
v -1.5 2 -2
v -1.5 3 3
v -1.5 3 2
v -1.5 3 -2
v -1.5 3 -3
v -1.5 6 3
v -1.5 6 2
v -1.5 6 -2
v -1.5 6 -3
v -1.5 7 2
v -1.5 7 -2
v 0.5 2 3
v 0.5 2 2
v 0.5 2 -2
v 0.5 2 -3
v 0.5 4 2
v 0.5 4 -2
v 0.5 5 2
v 0.5 5 1
v 0.5 5 -1
v 0.5 5 -2
v 0.5 6 3
v 0.5 6 2
v 0.5 6 1
v 0.5 6 -1
v 0.5 6 -2
v 0.5 6 -3
v 0.5 7 2
v 0.5 7 -2
v 1.5 3 2
v 1.5 3 1
v 1.5 3 -1
v 1.5 3 -2
v 1.5 4 2
v 1.5 4 1
v 1.5 4 -1
v 1.5 4 -2
v 1.5 5 2
v 1.5 5 1
v 1.5 5 -1
v 1.5 5 -2
v 1.5 6 1
v 1.5 6 -1
v 2.5 2 2
v 2.5 2 1
v 2.5 2 -1
v 2.5 2 -2
v 2.5 3 2
v 2.5 3 1
v 2.5 3 -1
v 2.5 3 -2
v 2.5 4 1
v 2.5 4 -1
v 3.5 1 2
v 3.5 1 1
v 3.5 1 -1
v 3.5 1 -2
v 3.5 2 2
v 3.5 2 1
v 3.5 2 -1
v 3.5 2 -2
v 3.5 3 1
v 3.5 3 -1
v 4.5 1 1
v 4.5 1 -1
v 4.5 2 1
v 4.5 2 -1
v 6.5 0 1
v 6.5 0 -1
v 6.5 1 1
v 6.5 1 -1
v -5.5 3 3
v -5.5 4 3
v -4.5 1 3
v -4.5 3 3
v -3.5 1 3
v -3.5 4 3
v -2.5 3 3
v -2.5 6 3
v -1.5 3 3
v -1.5 6 3
v -0.5 2 3
v -0.5 6 3
v 0.5 2 3
v 0.5 6 3
v -9.5 1 2
v -9.5 2 2
v -8.5 1 2
v -8.5 2 2
v -6.5 2 2
v -6.5 4 2
v -5.5 1 2
v -5.5 2 2
v -5.5 3 2
v -5.5 4 2
v -4.5 0 2
v -4.5 1 2
v -4.5 3 2
v -4.5 4 2
v -4.5 5 2
v -3.5 0 2
v -3.5 1 2
v -3.5 2 2
v -3.5 4 2
v -3.5 5 2
v -2.5 2 2
v -2.5 3 2
v -2.5 5 2
v -2.5 6 2
v -2.5 7 2
v -1.5 2 2
v -1.5 3 2
v -1.5 6 2
v -1.5 7 2
v -0.5 3 2
v -0.5 6 2
v -0.5 7 2
v 0.5 1 2
v 0.5 2 2
v 0.5 4 2
v 0.5 5 2
v 0.5 6 2
v 0.5 7 2
v 1.5 1 2
v 1.5 3 2
v 1.5 4 2
v 1.5 5 2
v 2.5 1 2
v 2.5 2 2
v 2.5 3 2
v 3.5 1 2
v 3.5 2 2
v -8.5 1 1
v -8.5 2 1
v -7.5 1 1
v -7.5 2 1
v -7.5 3 1
v -6.5 0 1
v -6.5 1 1
v -6.5 2 1
v -6.5 3 1
v -5.5 1 1
v -5.5 2 1
v -5.5 4 1
v -5.5 5 1
v -4.5 0 1
v -4.5 1 1
v -4.5 4 1
v -4.5 5 1
v -3.5 1 1
v -3.5 2 1
v -3.5 5 1
v -3.5 6 1
v -2.5 1 1
v -2.5 2 1
v -2.5 5 1
v -2.5 6 1
v 0.5 5 1
v 0.5 6 1
v 1.5 0 1
v 1.5 1 1
v 1.5 3 1
v 1.5 4 1
v 1.5 5 1
v 1.5 6 1
v 2.5 1 1
v 2.5 2 1
v 2.5 3 1
v 2.5 4 1
v 3.5 0 1
v 3.5 1 1
v 3.5 2 1
v 3.5 3 1
v 4.5 0 1
v 4.5 1 1
v 4.5 2 1
v 5.5 0 1
v 5.5 1 1
v 6.5 0 1
v 6.5 1 1
v -9.5 1 -1
v -9.5 2 -1
v -8.5 1 -1
v -8.5 2 -1
v -9.5 1 1
v -9.5 2 1
v -8.5 1 1
v -8.5 2 1
v -8.5 1 -1
v -8.5 2 -1
v -7.5 1 -1
v -7.5 2 -1
v -7.5 3 -1
v -6.5 0 -1
v -6.5 1 -1
v -6.5 2 -1
v -6.5 3 -1
v -5.5 1 -1
v -5.5 2 -1
v -5.5 4 -1
v -5.5 5 -1
v -4.5 0 -1
v -4.5 1 -1
v -4.5 4 -1
v -4.5 5 -1
v -3.5 1 -1
v -3.5 2 -1
v -3.5 5 -1
v -3.5 6 -1
v -2.5 1 -1
v -2.5 2 -1
v -2.5 5 -1
v -2.5 6 -1
v 0.5 5 -1
v 0.5 6 -1
v 1.5 0 -1
v 1.5 1 -1
v 1.5 3 -1
v 1.5 4 -1
v 1.5 5 -1
v 1.5 6 -1
v 2.5 1 -1
v 2.5 2 -1
v 2.5 3 -1
v 2.5 4 -1
v 3.5 0 -1
v 3.5 1 -1
v 3.5 2 -1
v 3.5 3 -1
v 4.5 0 -1
v 4.5 1 -1
v 4.5 2 -1
v 5.5 0 -1
v 5.5 1 -1
v 6.5 0 -1
v 6.5 1 -1
v -9.5 1 -2
v -9.5 2 -2
v -8.5 1 -2
v -8.5 2 -2
v -6.5 2 -2
v -6.5 4 -2
v -5.5 1 -2
v -5.5 2 -2
v -5.5 3 -2
v -5.5 4 -2
v -4.5 0 -2
v -4.5 1 -2
v -4.5 3 -2
v -4.5 4 -2
v -4.5 5 -2
v -3.5 0 -2
v -3.5 1 -2
v -3.5 2 -2
v -3.5 4 -2
v -3.5 5 -2
v -2.5 2 -2
v -2.5 3 -2
v -2.5 5 -2
v -2.5 6 -2
v -2.5 7 -2
v -1.5 2 -2
v -1.5 3 -2
v -1.5 6 -2
v -1.5 7 -2
v -0.5 3 -2
v -0.5 6 -2
v -0.5 7 -2
v 0.5 1 -2
v 0.5 2 -2
v 0.5 4 -2
v 0.5 5 -2
v 0.5 6 -2
v 0.5 7 -2
v 1.5 1 -2
v 1.5 3 -2
v 1.5 4 -2
v 1.5 5 -2
v 2.5 1 -2
v 2.5 2 -2
v 2.5 3 -2
v 3.5 1 -2
v 3.5 2 -2
v -5.5 3 -3
v -5.5 4 -3
v -4.5 1 -3
v -4.5 3 -3
v -3.5 1 -3
v -3.5 4 -3
v -2.5 3 -3
v -2.5 6 -3
v -1.5 3 -3
v -1.5 6 -3
v -0.5 2 -3
v -0.5 6 -3
v 0.5 2 -3
v 0.5 6 -3
v -4.5 0 2
v -3.5 0 2
v -6.5 0 1
v -4.5 0 1
v 1.5 0 1
v 3.5 0 1
v 4.5 0 1
v 5.5 0 1
v 6.5 0 1
v -6.5 0 -1
v -4.5 0 -1
v 1.5 0 -1
v 3.5 0 -1
v 4.5 0 -1
v 5.5 0 -1
v 6.5 0 -1
v -4.5 0 -2
v -3.5 0 -2
v -4.5 1 3
v -3.5 1 3
v -9.5 1 2
v -8.5 1 2
v -5.5 1 2
v -4.5 1 2
v -3.5 1 2
v 0.5 1 2
v 1.5 1 2
v 2.5 1 2
v 3.5 1 2
v -9.5 1 1
v -8.5 1 1
v -7.5 1 1
v -6.5 1 1
v -5.5 1 1
v -4.5 1 1
v -3.5 1 1
v -2.5 1 1
v 1.5 1 1
v 2.5 1 1
v 3.5 1 1
v -9.5 1 -1
v -8.5 1 -1
v -7.5 1 -1
v -6.5 1 -1
v -5.5 1 -1
v -4.5 1 -1
v -3.5 1 -1
v -2.5 1 -1
v 1.5 1 -1
v 2.5 1 -1
v 3.5 1 -1
v -9.5 1 -2
v -8.5 1 -2
v -5.5 1 -2
v -4.5 1 -2
v -3.5 1 -2
v 0.5 1 -2
v 1.5 1 -2
v 2.5 1 -2
v 3.5 1 -2
v -4.5 1 -3
v -3.5 1 -3
v -0.5 2 3
v 0.5 2 3
v -6.5 2 2
v -5.5 2 2
v -3.5 2 2
v -2.5 2 2
v -1.5 2 2
v 0.5 2 2
v -6.5 2 1
v -5.5 2 1
v -3.5 2 1
v -2.5 2 1
v -6.5 2 -1
v -5.5 2 -1
v -3.5 2 -1
v -2.5 2 -1
v -6.5 2 -2
v -5.5 2 -2
v -3.5 2 -2
v -2.5 2 -2
v -1.5 2 -2
v 0.5 2 -2
v -0.5 2 -3
v 0.5 2 -3
v -5.5 3 3
v -4.5 3 3
v -2.5 3 3
v -1.5 3 3
v -5.5 3 2
v -4.5 3 2
v -2.5 3 2
v -1.5 3 2
v -0.5 3 2
v -5.5 3 -2
v -4.5 3 -2
v -2.5 3 -2
v -1.5 3 -2
v -0.5 3 -2
v -5.5 3 -3
v -4.5 3 -3
v -2.5 3 -3
v -1.5 3 -3
v 4.5 1 1
v 5.5 1 1
v 6.5 1 1
v 4.5 1 -1
v 5.5 1 -1
v 6.5 1 -1
v -9.5 2 2
v -8.5 2 2
v 2.5 2 2
v 3.5 2 2
v -9.5 2 1
v -8.5 2 1
v -7.5 2 1
v 2.5 2 1
v 3.5 2 1
v 4.5 2 1
v -9.5 2 -1
v -8.5 2 -1
v -7.5 2 -1
v 2.5 2 -1
v 3.5 2 -1
v 4.5 2 -1
v -9.5 2 -2
v -8.5 2 -2
v 2.5 2 -2
v 3.5 2 -2
v 1.5 3 2
v 2.5 3 2
v -7.5 3 1
v -6.5 3 1
v 1.5 3 1
v 2.5 3 1
v 3.5 3 1
v -7.5 3 -1
v -6.5 3 -1
v 1.5 3 -1
v 2.5 3 -1
v 3.5 3 -1
v 1.5 3 -2
v 2.5 3 -2
v -5.5 4 3
v -3.5 4 3
v -6.5 4 2
v -5.5 4 2
v -4.5 4 2
v -3.5 4 2
v -5.5 4 1
v -4.5 4 1
v 1.5 4 1
v 2.5 4 1
v -5.5 4 -1
v -4.5 4 -1
v 1.5 4 -1
v 2.5 4 -1
v -6.5 4 -2
v -5.5 4 -2
v -4.5 4 -2
v -3.5 4 -2
v -5.5 4 -3
v -3.5 4 -3
v -4.5 5 2
v -3.5 5 2
v -2.5 5 2
v 0.5 5 2
v 1.5 5 2
v -5.5 5 1
v -4.5 5 1
v -3.5 5 1
v -2.5 5 1
v 0.5 5 1
v 1.5 5 1
v -5.5 5 -1
v -4.5 5 -1
v -3.5 5 -1
v -2.5 5 -1
v 0.5 5 -1
v 1.5 5 -1
v -4.5 5 -2
v -3.5 5 -2
v -2.5 5 -2
v 0.5 5 -2
v 1.5 5 -2
v -2.5 6 3
v -1.5 6 3
v -0.5 6 3
v 0.5 6 3
v -2.5 6 2
v -1.5 6 2
v -0.5 6 2
v 0.5 6 2
v -3.5 6 1
v -2.5 6 1
v 0.5 6 1
v 1.5 6 1
v -3.5 6 -1
v -2.5 6 -1
v 0.5 6 -1
v 1.5 6 -1
v -2.5 6 -2
v -1.5 6 -2
v -0.5 6 -2
v 0.5 6 -2
v -2.5 6 -3
v -1.5 6 -3
v -0.5 6 -3
v 0.5 6 -3
v -2.5 7 2
v -1.5 7 2
v -0.5 7 2
v 0.5 7 2
v -2.5 7 -2
v -1.5 7 -2
v -0.5 7 -2
v 0.5 7 -2

# faces
f 5/6/1 2/6/1 1/6/1
f 6/6/1 2/6/1 5/6/1
f 7/6/1 4/6/1 3/6/1
f 8/6/1 4/6/1 7/6/1
f 11/5/1 10/5/1 9/5/1
f 12/5/1 10/5/1 11/5/1
f 15/2/1 14/2/1 13/2/1
f 16/2/1 14/2/1 15/2/1
f 19/2/1 18/2/1 17/2/1
f 20/2/1 18/2/1 19/2/1
f 25/2/1 22/2/1 21/2/1
f 26/2/1 24/2/1 23/2/1
f 27/2/1 25/2/1 21/2/1
f 27/2/1 26/2/1 25/2/1
f 28/2/1 24/2/1 26/2/1
f 28/2/1 26/2/1 27/2/1
f 33/2/1 30/2/1 29/2/1
f 34/2/1 30/2/1 33/2/1
f 35/2/1 32/2/1 31/2/1
f 36/2/1 32/2/1 35/2/1
f 41/2/1 38/2/1 37/2/1
f 42/2/1 38/2/1 41/2/1
f 45/2/1 40/2/1 39/2/1
f 46/2/1 40/2/1 45/2/1
f 47/2/1 44/2/1 43/2/1
f 48/2/1 44/2/1 47/2/1
f 54/2/1 50/2/1 49/2/1
f 55/2/1 50/2/1 54/2/1
f 56/2/1 52/2/1 51/2/1
f 57/2/1 52/2/1 56/2/1
f 59/2/1 54/2/1 53/2/1
f 60/2/1 54/2/1 59/2/1
f 61/2/1 58/2/1 57/2/1
f 62/2/1 58/2/1 61/2/1
f 67/2/1 64/2/1 63/2/1
f 68/2/1 64/2/1 67/2/1
f 69/2/1 66/2/1 65/2/1
f 70/2/1 66/2/1 69/2/1
f 73/2/1 72/2/1 71/2/1
f 74/2/1 72/2/1 73/2/1
f 79/2/1 76/2/1 75/2/1
f 82/2/1 78/2/1 77/2/1
f 83/2/1 80/2/1 79/2/1
f 83/2/1 79/2/1 75/2/1
f 84/2/1 80/2/1 83/2/1
f 85/2/1 80/2/1 84/2/1
f 86/2/1 82/2/1 81/2/1
f 87/2/1 78/2/1 82/2/1
f 87/2/1 82/2/1 86/2/1
f 88/2/1 78/2/1 87/2/1
f 89/2/1 85/2/1 84/2/1
f 89/2/1 86/2/1 85/2/1
f 89/2/1 87/2/1 86/2/1
f 90/2/1 87/2/1 89/2/1
f 93/2/1 92/2/1 91/2/1
f 94/2/1 92/2/1 93/2/1
f 95/2/1 93/2/1 91/2/1
f 96/2/1 93/2/1 95/2/1
f 97/2/1 92/2/1 94/2/1
f 98/2/1 92/2/1 97/2/1
f 99/2/1 97/2/1 96/2/1
f 100/2/1 97/2/1 99/2/1
f 103/2/1 102/2/1 101/2/1
f 104/2/1 102/2/1 103/2/1
f 107/2/1 106/2/1 105/2/1
f 108/2/1 106/2/1 107/2/1
f 109/6/2 110/6/2 113/6/2
f 113/6/2 110/6/2 114/6/2
f 111/6/2 112/6/2 115/6/2
f 115/6/2 112/6/2 116/6/2
f 117/2/2 118/2/2 120/2/2
f 120/2/2 118/2/2 121/2/2
f 121/2/2 118/2/2 122/2/2
f 122/2/2 118/2/2 123/2/2
f 119/2/2 120/2/2 125/2/2
f 120/2/2 121/2/2 125/2/2
f 125/2/2 121/2/2 126/2/2
f 123/2/2 124/2/2 127/2/2
f 122/2/2 123/2/2 127/2/2
f 127/2/2 124/2/2 128/2/2
f 119/2/2 125/2/2 129/2/2
f 129/2/2 125/2/2 130/2/2
f 128/2/2 124/2/2 131/2/2
f 131/2/2 124/2/2 132/2/2
f 133/2/2 134/2/2 135/2/2
f 135/2/2 134/2/2 136/2/2
f 137/2/2 138/2/2 140/2/2
f 140/2/2 138/2/2 141/2/2
f 139/2/2 140/2/2 143/2/2
f 143/2/2 140/2/2 144/2/2
f 141/2/2 142/2/2 145/2/2
f 145/2/2 142/2/2 146/2/2
f 144/2/2 145/2/2 147/2/2
f 147/2/2 145/2/2 148/2/2
f 149/2/2 150/2/2 153/2/2
f 151/2/2 152/2/2 154/2/2
f 149/2/2 153/2/2 155/2/2
f 154/2/2 152/2/2 158/2/2
f 155/2/2 156/2/2 159/2/2
f 149/2/2 155/2/2 159/2/2
f 159/2/2 156/2/2 160/2/2
f 160/2/2 156/2/2 161/2/2
f 157/2/2 158/2/2 162/2/2
f 158/2/2 152/2/2 163/2/2
f 162/2/2 158/2/2 163/2/2
f 163/2/2 152/2/2 164/2/2
f 160/2/2 161/2/2 165/2/2
f 161/2/2 162/2/2 165/2/2
f 162/2/2 163/2/2 165/2/2
f 165/2/2 163/2/2 166/2/2
f 167/2/2 168/2/2 171/2/2
f 171/2/2 168/2/2 172/2/2
f 169/2/2 170/2/2 173/2/2
f 173/2/2 170/2/2 174/2/2
f 171/1/2 172/1/2 175/1/2
f 172/1/2 173/1/2 175/1/2
f 173/1/2 174/1/2 175/1/2
f 175/1/2 174/1/2 176/1/2
f 176/1/2 174/1/2 177/1/2
f 177/1/2 174/1/2 178/1/2
f 176/2/2 177/2/2 179/2/2
f 179/2/2 177/2/2 180/2/2
f 181/1/2 182/1/2 185/1/2
f 185/1/2 182/1/2 186/1/2
f 183/1/2 184/1/2 187/1/2
f 187/1/2 184/1/2 188/1/2
f 186/1/2 187/1/2 189/1/2
f 189/1/2 187/1/2 190/1/2
f 191/2/2 192/2/2 195/2/2
f 195/2/2 192/2/2 196/2/2
f 193/2/2 194/2/2 197/2/2
f 197/2/2 194/2/2 198/2/2
f 196/2/2 197/2/2 199/2/2
f 199/2/2 197/2/2 200/2/2
f 201/1/2 202/1/2 203/1/2
f 203/1/2 202/1/2 204/1/2
f 205/1/2 206/1/2 207/1/2
f 207/1/2 206/1/2 208/1/2
f 212/2/3 210/2/3 209/2/3
f 213/2/3 212/2/3 211/2/3
f 214/2/3 210/2/3 212/2/3
f 214/2/3 212/2/3 213/2/3
f 217/2/3 216/2/3 215/2/3
f 218/2/3 216/2/3 217/2/3
f 221/2/3 220/2/3 219/2/3
f 222/2/3 220/2/3 221/2/3
f 225/6/3 224/6/3 223/6/3
f 226/6/3 224/6/3 225/6/3
f 230/2/3 228/2/3 227/2/3
f 231/2/3 228/2/3 230/2/3
f 232/2/3 228/2/3 231/2/3
f 234/2/3 230/2/3 229/2/3
f 234/2/3 231/2/3 230/2/3
f 235/2/3 231/2/3 234/2/3
f 238/2/3 234/2/3 233/2/3
f 239/2/3 234/2/3 238/2/3
f 241/2/3 237/2/3 236/2/3
f 242/2/3 237/2/3 241/2/3
f 243/1/3 241/1/3 240/1/3
f 243/1/3 242/1/3 241/1/3
f 244/1/3 242/1/3 243/1/3
f 245/1/3 242/1/3 244/1/3
f 248/2/3 244/2/3 243/2/3
f 249/2/3 244/2/3 248/2/3
f 250/2/3 247/2/3 246/2/3
f 251/2/3 247/2/3 250/2/3
f 252/1/3 250/1/3 249/1/3
f 253/1/3 250/1/3 252/1/3
f 259/2/3 254/2/3 253/2/3
f 260/2/3 254/2/3 259/2/3
f 261/2/3 256/2/3 255/2/3
f 261/2/3 257/2/3 256/2/3
f 262/2/3 257/2/3 261/2/3
f 263/1/3 258/1/3 257/1/3
f 263/2/3 257/2/3 262/2/3
f 264/1/3 258/1/3 263/1/3
f 265/1/3 262/1/3 261/1/3
f 266/1/3 262/1/3 265/1/3
f 267/1/3 262/1/3 266/1/3
f 268/2/3 266/2/3 265/2/3
f 269/2/3 266/2/3 268/2/3
f 272/5/3 271/5/3 270/5/3
f 273/5/3 271/5/3 272/5/3
f 276/2/3 273/2/3 272/2/3
f 276/2/3 274/2/3 273/2/3
f 277/2/3 274/2/3 276/2/3
f 278/2/3 274/2/3 277/2/3
f 279/2/3 276/2/3 275/2/3
f 279/2/3 277/2/3 276/2/3
f 280/2/3 277/2/3 279/2/3
f 283/2/3 279/2/3 275/2/3
f 284/2/3 279/2/3 283/2/3
f 285/2/3 282/2/3 281/2/3
f 286/2/3 282/2/3 285/2/3
f 291/2/3 288/2/3 287/2/3
f 292/2/3 288/2/3 291/2/3
f 293/2/3 290/2/3 289/2/3
f 294/2/3 290/2/3 293/2/3
f 301/2/3 296/2/3 295/2/3
f 302/2/3 296/2/3 301/2/3
f 303/2/3 298/2/3 297/2/3
f 305/1/3 300/1/3 299/1/3
f 306/1/3 300/1/3 305/1/3
f 307/2/3 303/2/3 297/2/3
f 308/2/3 303/2/3 307/2/3
f 309/2/3 305/2/3 304/2/3
f 310/2/3 305/2/3 309/2/3
f 311/1/3 308/1/3 307/1/3
f 311/1/3 309/1/3 308/1/3
f 312/1/3 309/1/3 311/1/3
f 313/1/3 309/1/3 312/1/3
f 314/2/3 312/2/3 311/2/3
f 315/2/3 312/2/3 314/2/3
f 316/1/3 315/1/3 314/1/3
f 317/1/3 315/1/3 316/1/3
f 320/6/3 319/6/3 318/6/3
f 321/6/3 319/6/3 320/6/3
f 322/6/4 323/6/4 324/6/4
f 324/6/4 323/6/4 325/6/4
f 326/5/4 327/5/4 328/5/4
f 328/5/4 327/5/4 329/5/4
f 328/2/4 329/2/4 332/2/4
f 329/2/4 330/2/4 332/2/4
f 332/2/4 330/2/4 333/2/4
f 333/2/4 330/2/4 334/2/4
f 331/2/4 332/2/4 335/2/4
f 332/2/4 333/2/4 335/2/4
f 335/2/4 333/2/4 336/2/4
f 331/2/4 335/2/4 339/2/4
f 339/2/4 335/2/4 340/2/4
f 337/2/4 338/2/4 341/2/4
f 341/2/4 338/2/4 342/2/4
f 343/2/4 344/2/4 347/2/4
f 347/2/4 344/2/4 348/2/4
f 345/2/4 346/2/4 349/2/4
f 349/2/4 346/2/4 350/2/4
f 351/2/4 352/2/4 357/2/4
f 357/2/4 352/2/4 358/2/4
f 353/2/4 354/2/4 359/2/4
f 355/1/4 356/1/4 361/1/4
f 361/1/4 356/1/4 362/1/4
f 353/2/4 359/2/4 363/2/4
f 363/2/4 359/2/4 364/2/4
f 360/2/4 361/2/4 365/2/4
f 365/2/4 361/2/4 366/2/4
f 363/1/4 364/1/4 367/1/4
f 364/1/4 365/1/4 367/1/4
f 367/1/4 365/1/4 368/1/4
f 368/1/4 365/1/4 369/1/4
f 367/2/4 368/2/4 370/2/4
f 370/2/4 368/2/4 371/2/4
f 370/1/4 371/1/4 372/1/4
f 372/1/4 371/1/4 373/1/4
f 374/6/4 375/6/4 376/6/4
f 376/6/4 375/6/4 377/6/4
f 378/2/4 379/2/4 381/2/4
f 381/2/4 379/2/4 382/2/4
f 382/2/4 379/2/4 383/2/4
f 380/2/4 381/2/4 385/2/4
f 381/2/4 382/2/4 385/2/4
f 385/2/4 382/2/4 386/2/4
f 384/2/4 385/2/4 389/2/4
f 389/2/4 385/2/4 390/2/4
f 387/2/4 388/2/4 392/2/4
f 392/2/4 388/2/4 393/2/4
f 391/1/4 392/1/4 394/1/4
f 392/1/4 393/1/4 394/1/4
f 394/1/4 393/1/4 395/1/4
f 395/1/4 393/1/4 396/1/4
f 394/2/4 395/2/4 399/2/4
f 399/2/4 395/2/4 400/2/4
f 397/2/4 398/2/4 401/2/4
f 401/2/4 398/2/4 402/2/4
f 400/1/4 401/1/4 403/1/4
f 403/1/4 401/1/4 404/1/4
f 404/2/4 405/2/4 410/2/4
f 410/2/4 405/2/4 411/2/4
f 406/2/4 407/2/4 412/2/4
f 407/2/4 408/2/4 412/2/4
f 412/2/4 408/2/4 413/2/4
f 408/1/4 409/1/4 414/1/4
f 413/2/4 408/2/4 414/2/4
f 414/1/4 409/1/4 415/1/4
f 412/1/4 413/1/4 416/1/4
f 416/1/4 413/1/4 417/1/4
f 417/1/4 413/1/4 418/1/4
f 416/2/4 417/2/4 419/2/4
f 419/2/4 417/2/4 420/2/4
f 421/2/4 422/2/4 424/2/4
f 423/2/4 424/2/4 425/2/4
f 424/2/4 422/2/4 426/2/4
f 425/2/4 424/2/4 426/2/4
f 427/2/4 428/2/4 429/2/4
f 429/2/4 428/2/4 430/2/4
f 431/2/4 432/2/4 433/2/4
f 433/2/4 432/2/4 434/2/4
f 438/2/5 436/2/5 435/2/5
f 444/2/5 438/2/5 437/2/5
f 445/2/5 436/2/5 438/2/5
f 445/2/5 438/2/5 444/2/5
f 446/2/5 440/2/5 439/2/5
f 447/1/5 441/1/5 440/1/5
f 447/2/5 440/2/5 446/2/5
f 448/2/5 442/2/5 441/2/5
f 448/1/5 441/1/5 447/1/5
f 449/1/5 443/1/5 442/1/5
f 449/2/5 442/2/5 448/2/5
f 450/1/5 443/1/5 449/1/5
f 451/2/5 436/2/5 445/2/5
f 452/2/5 436/2/5 451/2/5
f 458/2/5 454/2/5 453/2/5
f 459/2/5 454/2/5 458/2/5
f 464/6/5 456/6/5 455/6/5
f 465/6/5 456/6/5 464/6/5
f 468/2/5 458/2/5 457/2/5
f 469/2/5 458/2/5 468/2/5
f 472/1/5 462/1/5 461/1/5
f 472/2/5 461/2/5 460/2/5
f 473/2/5 463/2/5 462/2/5
f 473/1/5 462/1/5 472/1/5
f 474/2/5 463/2/5 473/2/5
f 476/5/5 466/5/5 465/5/5
f 477/2/5 467/2/5 466/2/5
f 477/5/5 466/5/5 476/5/5
f 478/2/5 467/2/5 477/2/5
f 481/2/5 471/2/5 470/2/5
f 482/2/5 471/2/5 481/2/5
f 483/2/5 472/2/5 460/2/5
f 486/6/5 476/6/5 475/6/5
f 487/6/5 476/6/5 486/6/5
f 488/2/5 480/2/5 479/2/5
f 489/2/5 480/2/5 488/2/5
f 491/2/5 483/2/5 460/2/5
f 492/1/5 484/1/5 483/1/5
f 492/2/5 483/2/5 491/2/5
f 493/2/5 485/2/5 484/2/5
f 493/1/5 484/1/5 492/1/5
f 494/2/5 485/2/5 493/2/5
f 495/2/5 490/2/5 489/2/5
f 496/2/5 490/2/5 495/2/5
f 504/2/5 498/2/5 497/2/5
f 505/2/5 500/2/5 499/2/5
f 506/2/5 500/2/5 505/2/5
f 507/1/5 502/1/5 501/1/5
f 508/2/5 503/2/5 502/2/5
f 508/1/5 502/1/5 507/1/5
f 512/2/5 503/2/5 508/2/5
f 513/2/5 510/2/5 509/2/5
f 514/2/5 510/2/5 513/2/5
f 515/1/5 512/1/5 511/1/5
f 516/2/5 503/2/5 512/2/5
f 516/1/5 512/1/5 515/1/5
f 517/2/5 503/2/5 516/2/5
f 518/2/5 504/2/5 497/2/5
f 519/2/5 518/2/5 497/2/5
f 520/2/5 518/2/5 519/2/5
f 525/2/5 522/2/5 521/2/5
f 526/2/5 522/2/5 525/2/5
f 527/2/5 524/2/5 523/2/5
f 528/2/5 524/2/5 527/2/5
f 533/1/5 529/1/5 528/1/5
f 534/1/5 529/1/5 533/1/5
f 535/2/5 531/2/5 530/2/5
f 536/2/5 531/2/5 535/2/5
f 537/2/5 533/2/5 532/2/5
f 538/2/5 533/2/5 537/2/5
f 539/2/6 540/2/6 542/2/6
f 540/1/6 541/1/6 543/1/6
f 542/2/6 540/2/6 543/2/6
f 543/1/6 541/1/6 544/1/6
f 545/6/6 546/6/6 549/6/6
f 549/6/6 546/6/6 550/6/6
f 547/2/6 548/2/6 552/2/6
f 552/2/6 548/2/6 553/2/6
f 550/5/6 551/5/6 556/5/6
f 556/5/6 551/5/6 557/5/6
f 553/1/6 554/1/6 559/1/6
f 559/1/6 554/1/6 560/1/6
f 555/6/6 556/6/6 561/6/6
f 561/6/6 556/6/6 562/6/6
f 558/2/6 559/2/6 563/2/6
f 563/2/6 559/2/6 564/2/6
f 565/1/6 566/1/6 569/1/6
f 569/1/6 566/1/6 570/1/6
f 567/2/6 568/2/6 572/2/6
f 572/2/6 568/2/6 573/2/6
f 570/2/6 571/2/6 575/2/6
f 575/2/6 571/2/6 576/2/6
f 574/1/6 575/1/6 577/1/6
f 577/1/6 575/1/6 578/1/6
f 579/2/6 580/2/6 582/2/6
f 582/2/6 580/2/6 583/2/6
f 583/2/6 580/2/6 584/2/6
f 581/2/6 582/2/6 585/2/6
f 582/2/6 583/2/6 585/2/6
f 585/2/6 583/2/6 586/2/6
f 581/2/6 585/2/6 589/2/6
f 587/1/6 588/1/6 591/1/6
f 591/1/6 588/1/6 592/1/6
f 589/2/6 590/2/6 593/2/6
f 581/2/6 589/2/6 593/2/6
f 593/2/6 590/2/6 594/2/6
f 594/2/6 590/2/6 595/2/6
f 595/2/6 596/2/6 597/2/6
f 594/2/6 595/2/6 597/2/6
f 597/2/6 596/2/6 598/2/6
f 599/2/6 600/2/6 605/2/6
f 600/1/6 601/1/6 606/1/6
f 605/2/6 600/2/6 606/2/6
f 606/1/6 601/1/6 607/1/6
f 602/1/6 603/1/6 608/1/6
f 608/1/6 603/1/6 609/1/6
f 604/2/6 605/2/6 610/2/6
f 605/2/6 606/2/6 610/2/6
f 610/2/6 606/2/6 611/2/6
f 611/2/6 606/2/6 612/2/6
f 611/2/6 612/2/6 616/2/6
f 612/1/6 613/1/6 617/1/6
f 616/2/6 612/2/6 617/2/6
f 617/1/6 613/1/6 618/1/6
f 614/1/6 615/1/6 619/1/6
f 619/1/6 615/1/6 620/1/6
f 621/2/6 622/2/6 625/2/6
f 625/2/6 622/2/6 626/2/6
f 623/2/6 624/2/6 627/2/6
f 627/2/6 624/2/6 628/2/6
f 629/2/6 630/2/6 633/2/6
f 633/2/6 630/2/6 634/2/6
f 631/2/6 632/2/6 635/2/6
f 635/2/6 632/2/6 636/2/6
f 626/1/6 627/1/6 638/1/6
f 638/1/6 627/1/6 639/1/6
f 637/2/6 638/2/6 641/2/6
f 641/2/6 638/2/6 642/2/6
f 639/2/6 640/2/6 643/2/6
f 643/2/6 640/2/6 644/2/6
f 645/2/6 646/2/6 649/2/6
f 649/2/6 646/2/6 650/2/6
f 647/2/6 648/2/6 651/2/6
f 651/2/6 648/2/6 652/2/6
